include "include/hUGE.inc"

SECTION "test Song Data", ROMX

test::
db 8
dw order_cnt
dw order1, order2, order3, order4
dw duty_instruments, wave_instruments, noise_instruments
dw routines
dw waves

order_cnt: db 86
order1: dw P0,P6,P4,P4,P4,P4,P10,P10,P10,P14,P23,P19,P28,P32,P23,P19,P39,P40,P44,P46,P44,P46,P44,P46,P44,P48,P53,P53,P60,P61,P53,P53,P60,P64,P68,P72,P68,P72,P74,P78,P74,P78,P79
order2: dw P0,P0,P0,P16,P7,P7,P7,P7,P7,P15,P20,P24,P29,P33,P20,P24,P29,P41,P47,P45,P47,P45,P47,P45,P47,P15,P54,P54,P54,P54,P54,P54,P54,P65,P54,P54,P54,P73,P75,P0,P0,P0,P0
order3: dw P2,P2,P2,P2,P2,P2,P12,P12,P12,P12,P21,P25,P30,P34,P36,P37,P38,P42,P2,P2,P2,P2,P12,P12,P12,P12,P55,P59,P56,P62,P55,P59,P56,P66,P70,P70,P70,P70,P76,P76,P76,P76,P81
order4: dw P3,P3,P3,P3,P3,P3,P26,P26,P26,P17,P26,P26,P26,P13,P26,P26,P26,P43,P26,P26,P26,P26,P26,P26,P26,P17,P26,P26,P26,P13,P26,P26,P26,P67,P26,P26,P26,P13,P77,P0,P0,P0,P0

P0:
 dn ___,0,$000
 dn ___,0,$000
 dn ___,0,$000
 dn ___,0,$000
 dn ___,0,$000
 dn ___,0,$000
 dn ___,0,$000
 dn ___,0,$000
 dn ___,0,$000
 dn ___,0,$000
 dn ___,0,$000
 dn ___,0,$000
 dn ___,0,$000
 dn ___,0,$000
 dn ___,0,$000
 dn ___,0,$000
 dn ___,0,$000
 dn ___,0,$000
 dn ___,0,$000
 dn ___,0,$000
 dn ___,0,$000
 dn ___,0,$000
 dn ___,0,$000
 dn ___,0,$000
 dn ___,0,$000
 dn ___,0,$000
 dn ___,0,$000
 dn ___,0,$000
 dn ___,0,$000
 dn ___,0,$000
 dn ___,0,$000
 dn ___,0,$000
 dn ___,0,$000
 dn ___,0,$000
 dn ___,0,$000
 dn ___,0,$000
 dn ___,0,$000
 dn ___,0,$000
 dn ___,0,$000
 dn ___,0,$000
 dn ___,0,$000
 dn ___,0,$000
 dn ___,0,$000
 dn ___,0,$000
 dn ___,0,$000
 dn ___,0,$000
 dn ___,0,$000
 dn ___,0,$000
 dn ___,0,$000
 dn ___,0,$000
 dn ___,0,$000
 dn ___,0,$000
 dn ___,0,$000
 dn ___,0,$000
 dn ___,0,$000
 dn ___,0,$000
 dn ___,0,$000
 dn ___,0,$000
 dn ___,0,$000
 dn ___,0,$000
 dn ___,0,$000
 dn ___,0,$000
 dn ___,0,$000
 dn ___,0,$000

P2:
 dn D#7,1,$000
 dn ___,0,$000
 dn B_6,1,$000
 dn ___,0,$000
 dn G#6,1,$000
 dn ___,0,$000
 dn C#7,1,$000
 dn ___,0,$000
 dn A#6,1,$000
 dn ___,0,$000
 dn F#6,1,$000
 dn ___,0,$000
 dn B_6,1,$000
 dn ___,0,$000
 dn G#6,1,$000
 dn ___,0,$000
 dn D#6,1,$000
 dn ___,0,$000
 dn A#6,1,$000
 dn ___,0,$000
 dn F#6,1,$000
 dn ___,0,$000
 dn C#6,1,$000
 dn ___,0,$000
 dn D#6,1,$000
 dn ___,0,$000
 dn F#6,1,$000
 dn ___,0,$000
 dn G#6,1,$000
 dn ___,0,$000
 dn A#6,1,$000
 dn ___,0,$000
 dn B_6,1,$000
 dn ___,0,$000
 dn G#6,1,$000
 dn ___,0,$000
 dn D#6,1,$000
 dn ___,0,$000
 dn A#6,1,$000
 dn ___,0,$000
 dn F#6,1,$000
 dn ___,0,$000
 dn C#6,1,$000
 dn ___,0,$000
 dn G#6,1,$000
 dn ___,0,$000
 dn D#6,1,$000
 dn ___,0,$000
 dn B_5,1,$000
 dn ___,0,$000
 dn F#6,1,$000
 dn ___,0,$000
 dn C#6,1,$000
 dn ___,0,$000
 dn F#6,1,$000
 dn ___,0,$000
 dn G#6,1,$000
 dn ___,0,$000
 dn A#6,1,$000
 dn ___,0,$000
 dn B_6,1,$000
 dn ___,0,$000
 dn C#7,1,$000
 dn ___,0,$000

P3:
 dn A#7,1,$E02
 dn ___,0,$000
 dn A#7,1,$E01
 dn ___,0,$000
 dn A#7,1,$000
 dn ___,0,$000
 dn A#7,1,$E01
 dn ___,0,$000
 dn A#7,1,$E02
 dn ___,0,$000
 dn A#7,1,$E01
 dn ___,0,$000
 dn A#7,1,$000
 dn ___,0,$000
 dn A#7,1,$E01
 dn ___,0,$000
 dn A#7,1,$E02
 dn ___,0,$000
 dn A#7,1,$E01
 dn ___,0,$000
 dn A#7,1,$000
 dn ___,0,$000
 dn A#7,1,$E01
 dn ___,0,$000
 dn A#7,1,$E02
 dn ___,0,$000
 dn A#7,1,$E01
 dn ___,0,$000
 dn A#7,1,$000
 dn ___,0,$000
 dn A#7,1,$E01
 dn A#7,1,$E01
 dn A#7,1,$E02
 dn ___,0,$000
 dn A#7,1,$E01
 dn ___,0,$000
 dn A#7,1,$000
 dn ___,0,$000
 dn A#7,1,$E01
 dn ___,0,$000
 dn A#7,1,$E02
 dn ___,0,$000
 dn A#7,1,$E01
 dn ___,0,$000
 dn A#7,1,$000
 dn ___,0,$000
 dn A#7,1,$E01
 dn ___,0,$000
 dn A#7,1,$E02
 dn ___,0,$000
 dn A#7,1,$E01
 dn ___,0,$000
 dn A#7,1,$000
 dn ___,0,$000
 dn A#7,1,$E01
 dn ___,0,$000
 dn A#7,1,$E02
 dn ___,0,$000
 dn A#7,1,$E01
 dn ___,0,$000
 dn A#7,1,$000
 dn ___,0,$000
 dn A#7,1,$E01
 dn A#7,1,$E01

P4:
 dn E_3,1,$000
 dn ___,0,$000
 dn ___,0,$000
 dn ___,0,$000
 dn E_4,1,$000
 dn ___,0,$000
 dn ___,0,$220
 dn ___,0,$220
 dn E_3,1,$000
 dn ___,0,$000
 dn E_4,1,$000
 dn ___,0,$000
 dn ___,0,$E00
 dn ___,0,$000
 dn F#3,1,$000
 dn ___,0,$000
 dn F#4,1,$000
 dn ___,0,$000
 dn ___,0,$220
 dn ___,0,$220
 dn F#3,1,$000
 dn ___,0,$000
 dn F#4,1,$000
 dn ___,0,$000
 dn ___,0,$E00
 dn ___,0,$000
 dn F#3,1,$000
 dn ___,0,$000
 dn F#4,1,$000
 dn ___,0,$000
 dn ___,0,$220
 dn ___,0,$220
 dn D#3,1,$000
 dn ___,0,$000
 dn ___,0,$000
 dn ___,0,$000
 dn D#4,1,$000
 dn ___,0,$000
 dn ___,0,$220
 dn ___,0,$220
 dn D#3,1,$000
 dn ___,0,$000
 dn D#4,1,$000
 dn ___,0,$000
 dn ___,0,$E00
 dn ___,0,$000
 dn G#3,1,$000
 dn ___,0,$000
 dn G#4,1,$000
 dn ___,0,$000
 dn ___,0,$220
 dn ___,0,$220
 dn G#3,1,$000
 dn ___,0,$000
 dn G#4,1,$000
 dn ___,0,$000
 dn ___,0,$E00
 dn ___,0,$000
 dn F#3,1,$000
 dn ___,0,$000
 dn F#4,1,$000
 dn ___,0,$000
 dn ___,0,$220
 dn ___,0,$220

P6:
 dn ___,0,$000
 dn ___,0,$000
 dn ___,0,$000
 dn ___,0,$000
 dn ___,0,$000
 dn ___,0,$000
 dn ___,0,$000
 dn ___,0,$000
 dn ___,0,$000
 dn ___,0,$000
 dn ___,0,$000
 dn ___,0,$000
 dn ___,0,$000
 dn ___,0,$000
 dn ___,0,$000
 dn ___,0,$000
 dn ___,0,$000
 dn ___,0,$000
 dn ___,0,$000
 dn ___,0,$000
 dn ___,0,$000
 dn ___,0,$000
 dn ___,0,$000
 dn ___,0,$000
 dn ___,0,$000
 dn ___,0,$000
 dn ___,0,$000
 dn ___,0,$000
 dn ___,0,$000
 dn ___,0,$000
 dn ___,0,$000
 dn ___,0,$000
 dn ___,0,$000
 dn ___,0,$000
 dn ___,0,$000
 dn ___,0,$000
 dn ___,0,$000
 dn ___,0,$000
 dn ___,0,$000
 dn ___,0,$000
 dn ___,0,$000
 dn ___,0,$000
 dn ___,0,$000
 dn ___,0,$000
 dn ___,0,$000
 dn ___,0,$000
 dn ___,0,$000
 dn ___,0,$000
 dn F#4,6,$000
 dn ___,0,$000
 dn ___,0,$000
 dn ___,0,$000
 dn F#4,1,$000
 dn ___,0,$000
 dn ___,0,$E00
 dn ___,0,$000
 dn D#4,1,$000
 dn ___,0,$000
 dn C#4,1,$000
 dn ___,0,$000
 dn B_3,1,$000
 dn ___,0,$000
 dn ___,0,$220
 dn ___,0,$220

P7:
 dn C_5,2,$2F0
 dn ___,0,$2F0
 dn ___,0,$E00
 dn ___,0,$000
 dn D#5,3,$000
 dn ___,0,$000
 dn ___,0,$000
 dn ___,0,$000
 dn C_5,2,$2F0
 dn ___,0,$2F0
 dn ___,0,$E00
 dn ___,0,$000
 dn D#5,3,$000
 dn ___,0,$000
 dn ___,0,$000
 dn ___,0,$000
 dn C_5,2,$2F0
 dn ___,0,$2F0
 dn ___,0,$E00
 dn ___,0,$000
 dn C#5,4,$000
 dn ___,0,$000
 dn ___,0,$000
 dn ___,0,$000
 dn C_5,2,$2F0
 dn ___,0,$2F0
 dn ___,0,$E00
 dn ___,0,$000
 dn C#5,4,$000
 dn ___,0,$000
 dn ___,0,$000
 dn ___,0,$000
 dn C_5,2,$2F0
 dn ___,0,$2F0
 dn ___,0,$E00
 dn ___,0,$000
 dn C#5,4,$000
 dn ___,0,$000
 dn ___,0,$000
 dn ___,0,$000
 dn C_5,2,$2F0
 dn ___,0,$2F0
 dn ___,0,$E00
 dn ___,0,$000
 dn C#5,4,$000
 dn ___,0,$000
 dn ___,0,$000
 dn ___,0,$000
 dn C_5,2,$2F0
 dn ___,0,$2F0
 dn ___,0,$E00
 dn ___,0,$000
 dn D#5,3,$000
 dn ___,0,$000
 dn ___,0,$000
 dn ___,0,$000
 dn C_5,2,$2F0
 dn ___,0,$2F0
 dn ___,0,$E00
 dn ___,0,$000
 dn C#5,4,$000
 dn ___,0,$000
 dn ___,0,$000
 dn ___,0,$000

P10:
 dn E_3,1,$000
 dn ___,0,$000
 dn ___,0,$000
 dn ___,0,$000
 dn E_4,1,$000
 dn ___,0,$000
 dn ___,0,$220
 dn ___,0,$220
 dn C_5,5,$000
 dn ___,0,$000
 dn E_4,1,$000
 dn ___,0,$000
 dn ___,0,$E00
 dn ___,0,$000
 dn F#3,1,$000
 dn ___,0,$000
 dn F#4,1,$000
 dn ___,0,$000
 dn ___,0,$220
 dn ___,0,$220
 dn F#3,1,$000
 dn ___,0,$000
 dn F#4,1,$000
 dn ___,0,$000
 dn C_5,5,$E00
 dn ___,0,$000
 dn F#3,1,$000
 dn ___,0,$000
 dn F#4,1,$000
 dn ___,0,$000
 dn ___,0,$220
 dn ___,0,$220
 dn D#3,1,$000
 dn ___,0,$000
 dn ___,0,$000
 dn ___,0,$000
 dn D#4,1,$000
 dn ___,0,$000
 dn ___,0,$220
 dn ___,0,$220
 dn C_5,5,$000
 dn ___,0,$000
 dn D#4,1,$000
 dn ___,0,$000
 dn ___,0,$E00
 dn ___,0,$000
 dn G#3,1,$000
 dn ___,0,$000
 dn G#4,1,$000
 dn ___,0,$000
 dn ___,0,$220
 dn ___,0,$220
 dn G#3,1,$000
 dn ___,0,$000
 dn G#4,1,$000
 dn ___,0,$000
 dn C_5,5,$E00
 dn ___,0,$000
 dn F#3,1,$000
 dn ___,0,$000
 dn F#4,1,$000
 dn ___,0,$000
 dn ___,0,$220
 dn ___,0,$220

P12:
 dn D#7,2,$000
 dn D#7,1,$000
 dn B_6,2,$000
 dn B_6,1,$000
 dn G#6,2,$000
 dn G#6,1,$000
 dn C#7,2,$000
 dn C#7,1,$000
 dn A#6,2,$C08
 dn A#6,1,$C08
 dn F#6,2,$C08
 dn F#6,1,$C08
 dn B_6,2,$C08
 dn B_6,1,$C08
 dn G#6,2,$C08
 dn G#6,1,$C08
 dn D#6,2,$C04
 dn D#6,1,$C04
 dn A#6,2,$C04
 dn A#6,1,$C04
 dn F#6,2,$C04
 dn F#6,1,$C04
 dn C#6,2,$C04
 dn C#6,1,$C04
 dn D#6,2,$C04
 dn D#6,1,$C04
 dn F#6,2,$C04
 dn F#6,1,$C04
 dn G#6,2,$C04
 dn G#6,1,$C04
 dn A#6,2,$C04
 dn A#6,1,$C04
 dn B_6,2,$000
 dn B_6,1,$000
 dn G#6,2,$000
 dn G#6,1,$000
 dn D#6,2,$000
 dn D#6,1,$000
 dn A#6,2,$000
 dn A#6,1,$000
 dn F#6,2,$C08
 dn F#6,1,$C08
 dn C#6,2,$C08
 dn C#6,1,$C08
 dn G#6,2,$C08
 dn G#6,1,$C08
 dn D#6,2,$C08
 dn D#6,1,$C08
 dn B_5,2,$C04
 dn B_5,1,$C04
 dn F#6,2,$C04
 dn F#6,1,$C04
 dn C#6,2,$C04
 dn C#6,1,$C04
 dn F#6,2,$C04
 dn F#6,1,$C04
 dn G#6,2,$C04
 dn G#6,1,$C04
 dn A#6,2,$C04
 dn A#6,1,$C04
 dn B_6,2,$C04
 dn B_6,1,$C04
 dn C#7,2,$C04
 dn C#7,1,$C04

P13:
 dn A#7,1,$E01
 dn ___,0,$000
 dn A#7,1,$E02
 dn ___,0,$000
 dn A#7,1,$000
 dn ___,0,$000
 dn A#7,1,$E01
 dn ___,0,$000
 dn D#7,2,$000
 dn ___,0,$000
 dn ___,0,$000
 dn ___,0,$000
 dn A#7,1,$000
 dn ___,0,$000
 dn A#7,1,$E01
 dn ___,0,$000
 dn A#7,1,$E01
 dn ___,0,$000
 dn A#7,1,$E02
 dn ___,0,$000
 dn A#7,1,$000
 dn ___,0,$000
 dn A#7,1,$E01
 dn ___,0,$000
 dn D#7,2,$000
 dn ___,0,$000
 dn ___,0,$000
 dn ___,0,$000
 dn A#7,1,$000
 dn ___,0,$000
 dn A#7,1,$E01
 dn A#7,1,$E01
 dn A#7,1,$E01
 dn ___,0,$000
 dn A#7,1,$E02
 dn ___,0,$000
 dn A#7,1,$000
 dn ___,0,$000
 dn A#7,1,$E01
 dn ___,0,$000
 dn D#7,2,$000
 dn ___,0,$000
 dn ___,0,$000
 dn ___,0,$000
 dn A#7,1,$000
 dn ___,0,$000
 dn A#7,1,$E01
 dn ___,0,$000
 dn A#7,1,$E01
 dn ___,0,$000
 dn A#7,1,$E02
 dn ___,0,$000
 dn A#7,1,$000
 dn ___,0,$000
 dn A#7,1,$E01
 dn ___,0,$000
 dn D#7,2,$000
 dn ___,0,$000
 dn ___,0,$000
 dn ___,0,$000
 dn D#7,2,$000
 dn ___,0,$E00
 dn D#7,2,$000
 dn ___,0,$E00

P14:
 dn E_3,1,$000
 dn ___,0,$000
 dn ___,0,$000
 dn ___,0,$000
 dn E_4,1,$000
 dn ___,0,$000
 dn ___,0,$220
 dn ___,0,$220
 dn C_5,5,$000
 dn ___,0,$000
 dn E_4,1,$000
 dn ___,0,$000
 dn ___,0,$E00
 dn ___,0,$000
 dn F#3,1,$000
 dn ___,0,$000
 dn F#4,1,$000
 dn ___,0,$000
 dn ___,0,$220
 dn ___,0,$220
 dn F#3,1,$000
 dn ___,0,$000
 dn F#4,1,$000
 dn ___,0,$000
 dn C_5,5,$E00
 dn ___,0,$000
 dn F#3,1,$000
 dn ___,0,$000
 dn F#4,1,$000
 dn ___,0,$000
 dn ___,0,$220
 dn ___,0,$220
 dn G#4,1,$000
 dn ___,0,$000
 dn ___,0,$000
 dn ___,0,$000
 dn ___,0,$220
 dn ___,0,$220
 dn ___,0,$220
 dn ___,0,$220
 dn ___,0,$220
 dn ___,0,$220
 dn ___,0,$220
 dn ___,0,$220
 dn ___,0,$220
 dn ___,0,$220
 dn ___,0,$220
 dn ___,0,$220
 dn F#4,6,$000
 dn ___,0,$000
 dn ___,0,$000
 dn ___,0,$000
 dn F#4,1,$000
 dn ___,0,$000
 dn ___,0,$E00
 dn ___,0,$000
 dn D#4,1,$000
 dn ___,0,$000
 dn C#4,1,$000
 dn ___,0,$000
 dn B_3,1,$000
 dn ___,0,$000
 dn ___,0,$220
 dn ___,0,$220

P15:
 dn C_5,2,$2F0
 dn ___,0,$2F0
 dn ___,0,$E00
 dn ___,0,$000
 dn D#5,3,$000
 dn ___,0,$000
 dn ___,0,$000
 dn ___,0,$000
 dn C_5,2,$2F0
 dn ___,0,$2F0
 dn ___,0,$E00
 dn ___,0,$000
 dn D#5,3,$000
 dn ___,0,$000
 dn ___,0,$000
 dn ___,0,$000
 dn C_5,2,$2F0
 dn ___,0,$2F0
 dn ___,0,$E00
 dn ___,0,$000
 dn C#5,4,$000
 dn ___,0,$000
 dn ___,0,$000
 dn ___,0,$000
 dn C_5,2,$2F0
 dn ___,0,$2F0
 dn ___,0,$E00
 dn ___,0,$000
 dn C#5,4,$000
 dn ___,0,$000
 dn ___,0,$000
 dn ___,0,$000
 dn C_5,2,$2F0
 dn ___,0,$2F0
 dn ___,0,$E00
 dn ___,0,$000
 dn ___,0,$000
 dn ___,0,$000
 dn ___,0,$000
 dn ___,0,$000
 dn ___,0,$000
 dn ___,0,$000
 dn ___,0,$000
 dn ___,0,$000
 dn ___,0,$000
 dn ___,0,$000
 dn ___,0,$000
 dn ___,0,$000
 dn C_5,5,$000
 dn ___,0,$000
 dn C_5,5,$000
 dn ___,0,$000
 dn C_5,5,$000
 dn ___,0,$000
 dn ___,0,$000
 dn ___,0,$000
 dn C_5,5,$000
 dn ___,0,$000
 dn ___,0,$000
 dn ___,0,$000
 dn C_5,5,$000
 dn ___,0,$000
 dn C_5,5,$000
 dn ___,0,$000

P16:
 dn ___,0,$000
 dn ___,0,$000
 dn ___,0,$000
 dn ___,0,$000
 dn ___,0,$000
 dn ___,0,$000
 dn ___,0,$000
 dn ___,0,$000
 dn ___,0,$000
 dn ___,0,$000
 dn ___,0,$000
 dn ___,0,$000
 dn ___,0,$000
 dn ___,0,$000
 dn ___,0,$000
 dn ___,0,$000
 dn ___,0,$000
 dn ___,0,$000
 dn ___,0,$000
 dn ___,0,$000
 dn ___,0,$000
 dn ___,0,$000
 dn ___,0,$000
 dn ___,0,$000
 dn ___,0,$000
 dn ___,0,$000
 dn ___,0,$000
 dn ___,0,$000
 dn ___,0,$000
 dn ___,0,$000
 dn ___,0,$000
 dn ___,0,$000
 dn C_5,2,$2F0
 dn ___,0,$2F0
 dn ___,0,$E00
 dn ___,0,$000
 dn ___,0,$000
 dn ___,0,$000
 dn ___,0,$000
 dn ___,0,$000
 dn C_5,2,$2F0
 dn ___,0,$2F0
 dn ___,0,$E00
 dn ___,0,$000
 dn ___,0,$000
 dn ___,0,$000
 dn ___,0,$000
 dn ___,0,$000
 dn C_5,2,$2F0
 dn ___,0,$2F0
 dn ___,0,$E00
 dn ___,0,$000
 dn C_5,2,$2F0
 dn ___,0,$2F0
 dn ___,0,$E00
 dn ___,0,$000
 dn C_5,2,$2F0
 dn ___,0,$E00
 dn C_5,2,$2F0
 dn ___,0,$E00
 dn C_5,2,$2F0
 dn ___,0,$E00
 dn C_5,2,$2F0
 dn ___,0,$E00

P17:
 dn A#7,1,$E01
 dn ___,0,$000
 dn A#7,1,$E02
 dn ___,0,$000
 dn A#7,1,$000
 dn ___,0,$000
 dn A#7,1,$E01
 dn ___,0,$000
 dn D#7,2,$000
 dn ___,0,$000
 dn ___,0,$000
 dn ___,0,$000
 dn A#7,1,$000
 dn ___,0,$000
 dn A#7,1,$E01
 dn ___,0,$000
 dn A#7,1,$E01
 dn ___,0,$000
 dn A#7,1,$E02
 dn ___,0,$000
 dn A#7,1,$000
 dn ___,0,$000
 dn A#7,1,$E01
 dn ___,0,$000
 dn D#7,2,$000
 dn ___,0,$000
 dn ___,0,$000
 dn ___,0,$000
 dn A#7,1,$000
 dn ___,0,$000
 dn A#7,1,$E01
 dn A#7,1,$E01
 dn ___,0,$000
 dn ___,0,$000
 dn ___,0,$000
 dn ___,0,$000
 dn ___,0,$000
 dn ___,0,$000
 dn ___,0,$000
 dn ___,0,$000
 dn ___,0,$000
 dn ___,0,$000
 dn ___,0,$000
 dn ___,0,$000
 dn ___,0,$000
 dn ___,0,$000
 dn ___,0,$000
 dn ___,0,$000
 dn D#7,2,$000
 dn ___,0,$E00
 dn D#7,2,$000
 dn ___,0,$E00
 dn D#7,2,$000
 dn ___,0,$E00
 dn ___,0,$000
 dn ___,0,$000
 dn D#7,2,$000
 dn ___,0,$000
 dn ___,0,$000
 dn ___,0,$000
 dn D#7,2,$000
 dn ___,0,$E00
 dn D#7,2,$000
 dn ___,0,$E00

P19:
 dn D_3,1,$000
 dn ___,0,$000
 dn ___,0,$000
 dn ___,0,$000
 dn D_4,1,$000
 dn ___,0,$000
 dn ___,0,$220
 dn ___,0,$220
 dn B_4,5,$000
 dn ___,0,$000
 dn D_4,1,$000
 dn ___,0,$000
 dn ___,0,$E00
 dn ___,0,$000
 dn D_3,1,$000
 dn ___,0,$000
 dn D_4,1,$000
 dn ___,0,$000
 dn ___,0,$220
 dn ___,0,$220
 dn D_3,1,$000
 dn ___,0,$000
 dn D_4,1,$000
 dn ___,0,$000
 dn B_4,5,$E00
 dn ___,0,$000
 dn D_3,1,$000
 dn ___,0,$000
 dn D_4,1,$000
 dn ___,0,$000
 dn ___,0,$220
 dn ___,0,$220
 dn D_3,1,$000
 dn ___,0,$000
 dn ___,0,$000
 dn ___,0,$000
 dn D_4,1,$000
 dn ___,0,$000
 dn ___,0,$220
 dn ___,0,$220
 dn B_4,5,$000
 dn ___,0,$000
 dn D_4,1,$000
 dn ___,0,$000
 dn ___,0,$E00
 dn ___,0,$000
 dn D_3,1,$000
 dn ___,0,$000
 dn D_4,1,$000
 dn ___,0,$000
 dn ___,0,$220
 dn ___,0,$220
 dn D_3,1,$000
 dn ___,0,$000
 dn D_4,1,$000
 dn ___,0,$000
 dn B_4,5,$E00
 dn ___,0,$000
 dn D_3,1,$000
 dn ___,0,$000
 dn D_4,1,$000
 dn ___,0,$000
 dn ___,0,$220
 dn ___,0,$220

P20:
 dn C_5,2,$2F0
 dn ___,0,$2F0
 dn ___,0,$E00
 dn ___,0,$000
 dn D#5,3,$000
 dn ___,0,$000
 dn ___,0,$000
 dn ___,0,$000
 dn C_5,2,$2F0
 dn ___,0,$2F0
 dn ___,0,$E00
 dn ___,0,$000
 dn D#5,3,$000
 dn ___,0,$000
 dn ___,0,$000
 dn ___,0,$000
 dn C_5,2,$2F0
 dn ___,0,$2F0
 dn ___,0,$E00
 dn ___,0,$000
 dn D#5,3,$000
 dn ___,0,$000
 dn ___,0,$000
 dn ___,0,$000
 dn C_5,2,$2F0
 dn ___,0,$2F0
 dn ___,0,$E00
 dn ___,0,$000
 dn D#5,3,$000
 dn ___,0,$000
 dn ___,0,$000
 dn ___,0,$000
 dn C_5,2,$2F0
 dn ___,0,$2F0
 dn ___,0,$E00
 dn ___,0,$000
 dn C#5,4,$000
 dn ___,0,$000
 dn ___,0,$000
 dn ___,0,$000
 dn C_5,2,$2F0
 dn ___,0,$2F0
 dn ___,0,$E00
 dn ___,0,$000
 dn C#5,4,$000
 dn ___,0,$000
 dn ___,0,$000
 dn ___,0,$000
 dn C_5,2,$2F0
 dn ___,0,$2F0
 dn ___,0,$E00
 dn ___,0,$000
 dn C#5,4,$000
 dn ___,0,$000
 dn ___,0,$000
 dn ___,0,$000
 dn C_5,2,$2F0
 dn ___,0,$2F0
 dn ___,0,$E00
 dn ___,0,$000
 dn C#5,4,$000
 dn ___,0,$000
 dn ___,0,$000
 dn ___,0,$000

P21:
 dn G#4,5,$000
 dn ___,0,$000
 dn B_3,4,$000
 dn ___,0,$000
 dn E_4,3,$000
 dn ___,0,$000
 dn B_3,4,$000
 dn ___,0,$000
 dn F#4,4,$000
 dn ___,0,$000
 dn B_3,4,$000
 dn ___,0,$000
 dn G#4,5,$000
 dn ___,0,$000
 dn B_3,4,$000
 dn ___,0,$000
 dn F#4,4,$000
 dn ___,0,$000
 dn B_3,4,$000
 dn ___,0,$000
 dn G#4,5,$000
 dn ___,0,$000
 dn B_3,4,$000
 dn ___,0,$000
 dn F#4,5,$000
 dn ___,0,$000
 dn B_3,4,$000
 dn ___,0,$000
 dn G#4,5,$000
 dn ___,0,$000
 dn B_3,4,$000
 dn ___,0,$000
 dn F#4,5,$000
 dn ___,0,$000
 dn F#3,3,$000
 dn ___,0,$000
 dn F#4,4,$000
 dn ___,0,$000
 dn F#3,3,$000
 dn ___,0,$000
 dn G#4,5,$000
 dn ___,0,$000
 dn F#3,3,$000
 dn ___,0,$000
 dn F#4,5,$000
 dn ___,0,$000
 dn F#3,3,$000
 dn ___,0,$000
 dn G#4,5,$000
 dn ___,0,$000
 dn F#3,3,$000
 dn ___,0,$000
 dn F#4,5,$000
 dn ___,0,$000
 dn F#3,3,$000
 dn ___,0,$000
 dn G#4,5,$000
 dn ___,0,$000
 dn F#3,3,$000
 dn ___,0,$000
 dn F#4,5,$000
 dn ___,0,$000
 dn F#3,3,$000
 dn ___,0,$000

P23:
 dn G#3,1,$000
 dn ___,0,$000
 dn ___,0,$000
 dn ___,0,$000
 dn G#4,1,$000
 dn ___,0,$000
 dn ___,0,$220
 dn ___,0,$220
 dn C_5,5,$000
 dn ___,0,$000
 dn G#4,1,$000
 dn ___,0,$000
 dn ___,0,$E00
 dn ___,0,$000
 dn G#3,1,$000
 dn ___,0,$000
 dn G#4,1,$000
 dn ___,0,$000
 dn ___,0,$220
 dn ___,0,$220
 dn G#3,1,$000
 dn ___,0,$000
 dn G#4,1,$000
 dn ___,0,$000
 dn C_5,5,$E00
 dn ___,0,$000
 dn G#3,1,$000
 dn ___,0,$000
 dn G#4,1,$000
 dn ___,0,$000
 dn ___,0,$220
 dn ___,0,$220
 dn D#3,1,$000
 dn ___,0,$000
 dn ___,0,$000
 dn ___,0,$000
 dn D#4,1,$000
 dn ___,0,$000
 dn ___,0,$220
 dn ___,0,$220
 dn C_5,5,$000
 dn ___,0,$000
 dn D#4,1,$000
 dn ___,0,$000
 dn ___,0,$E00
 dn ___,0,$000
 dn D#3,1,$000
 dn ___,0,$000
 dn D#4,1,$000
 dn ___,0,$000
 dn ___,0,$220
 dn ___,0,$220
 dn D#3,1,$000
 dn ___,0,$000
 dn D#4,1,$000
 dn ___,0,$000
 dn C_5,5,$E00
 dn ___,0,$000
 dn D#3,1,$000
 dn ___,0,$000
 dn D#4,1,$000
 dn ___,0,$000
 dn ___,0,$220
 dn ___,0,$220

P24:
 dn C_5,2,$2F0
 dn ___,0,$2F0
 dn ___,0,$E00
 dn ___,0,$000
 dn C_5,4,$000
 dn ___,0,$000
 dn ___,0,$000
 dn ___,0,$000
 dn C_5,2,$2F0
 dn ___,0,$2F0
 dn ___,0,$E00
 dn ___,0,$000
 dn C_5,4,$000
 dn ___,0,$000
 dn ___,0,$000
 dn ___,0,$000
 dn C_5,2,$2F0
 dn ___,0,$2F0
 dn ___,0,$E00
 dn ___,0,$000
 dn C_5,4,$000
 dn ___,0,$000
 dn ___,0,$000
 dn ___,0,$000
 dn C_5,2,$2F0
 dn ___,0,$2F0
 dn ___,0,$E00
 dn ___,0,$000
 dn C_5,4,$000
 dn ___,0,$000
 dn ___,0,$000
 dn ___,0,$000
 dn C_5,2,$2F0
 dn ___,0,$2F0
 dn ___,0,$E00
 dn ___,0,$000
 dn C_5,4,$000
 dn ___,0,$000
 dn ___,0,$000
 dn ___,0,$000
 dn C_5,2,$2F0
 dn ___,0,$2F0
 dn ___,0,$E00
 dn ___,0,$000
 dn C_5,4,$000
 dn ___,0,$000
 dn ___,0,$000
 dn ___,0,$000
 dn C_5,2,$2F0
 dn ___,0,$2F0
 dn ___,0,$E00
 dn ___,0,$000
 dn C_5,4,$000
 dn ___,0,$000
 dn ___,0,$000
 dn ___,0,$000
 dn C_5,2,$2F0
 dn ___,0,$2F0
 dn ___,0,$E00
 dn ___,0,$000
 dn C_5,4,$000
 dn ___,0,$000
 dn ___,0,$000
 dn ___,0,$000

P25:
 dn F_4,5,$000
 dn ___,0,$000
 dn F_3,3,$000
 dn ___,0,$000
 dn F_4,4,$000
 dn ___,0,$000
 dn F_3,3,$000
 dn ___,0,$000
 dn G_4,5,$000
 dn ___,0,$000
 dn F_3,3,$000
 dn ___,0,$000
 dn F_4,5,$000
 dn ___,0,$000
 dn F_3,3,$000
 dn ___,0,$000
 dn G_4,5,$000
 dn ___,0,$000
 dn F_3,3,$000
 dn ___,0,$000
 dn F_4,5,$000
 dn ___,0,$000
 dn F_3,3,$000
 dn ___,0,$000
 dn G_4,5,$000
 dn ___,0,$000
 dn F_3,3,$000
 dn ___,0,$000
 dn F_4,5,$000
 dn ___,0,$000
 dn F_3,3,$000
 dn ___,0,$000
 dn G_4,5,$000
 dn ___,0,$000
 dn F_3,3,$000
 dn ___,0,$000
 dn F_4,5,$000
 dn ___,0,$000
 dn F_3,3,$000
 dn ___,0,$000
 dn G_4,5,$C08
 dn ___,0,$000
 dn F_3,3,$C08
 dn ___,0,$000
 dn F_4,5,$C08
 dn ___,0,$000
 dn F_3,3,$C08
 dn ___,0,$000
 dn G_4,5,$C04
 dn ___,0,$000
 dn F_3,3,$C04
 dn ___,0,$000
 dn F_4,5,$C04
 dn ___,0,$000
 dn F_3,3,$C04
 dn ___,0,$000
 dn G_4,5,$C04
 dn ___,0,$000
 dn F_3,3,$C04
 dn ___,0,$000
 dn F_4,5,$C04
 dn ___,0,$000
 dn F_3,3,$C04
 dn ___,0,$000

P26:
 dn A#7,1,$E01
 dn ___,0,$000
 dn A#7,1,$E02
 dn ___,0,$000
 dn A#7,1,$000
 dn ___,0,$000
 dn A#7,1,$E01
 dn ___,0,$000
 dn D#7,2,$000
 dn ___,0,$000
 dn ___,0,$000
 dn ___,0,$000
 dn A#7,1,$000
 dn ___,0,$000
 dn A#7,1,$E01
 dn ___,0,$000
 dn A#7,1,$E01
 dn ___,0,$000
 dn A#7,1,$E02
 dn ___,0,$000
 dn A#7,1,$000
 dn ___,0,$000
 dn A#7,1,$E01
 dn ___,0,$000
 dn D#7,2,$000
 dn ___,0,$000
 dn ___,0,$000
 dn ___,0,$000
 dn A#7,1,$000
 dn ___,0,$000
 dn A#7,1,$E01
 dn A#7,1,$E01
 dn A#7,1,$E01
 dn ___,0,$000
 dn A#7,1,$E02
 dn ___,0,$000
 dn A#7,1,$000
 dn ___,0,$000
 dn A#7,1,$E01
 dn ___,0,$000
 dn D#7,2,$000
 dn ___,0,$000
 dn ___,0,$000
 dn ___,0,$000
 dn A#7,1,$000
 dn ___,0,$000
 dn A#7,1,$E01
 dn ___,0,$000
 dn A#7,1,$E01
 dn ___,0,$000
 dn A#7,1,$E02
 dn ___,0,$000
 dn A#7,1,$000
 dn ___,0,$000
 dn A#7,1,$E01
 dn ___,0,$000
 dn D#7,2,$000
 dn ___,0,$000
 dn ___,0,$000
 dn ___,0,$000
 dn A#7,1,$000
 dn ___,0,$000
 dn A#7,1,$E01
 dn A#7,1,$E01

P28:
 dn C#3,1,$000
 dn ___,0,$000
 dn ___,0,$000
 dn ___,0,$000
 dn C#4,1,$000
 dn ___,0,$000
 dn ___,0,$220
 dn ___,0,$220
 dn C_5,5,$000
 dn ___,0,$000
 dn C#4,1,$000
 dn ___,0,$000
 dn ___,0,$E00
 dn ___,0,$000
 dn C#3,1,$000
 dn ___,0,$000
 dn C#4,1,$000
 dn ___,0,$000
 dn ___,0,$220
 dn ___,0,$220
 dn C#3,1,$000
 dn ___,0,$000
 dn C#4,1,$000
 dn ___,0,$000
 dn C_5,5,$000
 dn ___,0,$000
 dn C#3,1,$000
 dn ___,0,$000
 dn C#4,1,$000
 dn ___,0,$000
 dn ___,0,$220
 dn ___,0,$220
 dn D#3,1,$000
 dn ___,0,$000
 dn ___,0,$000
 dn ___,0,$000
 dn D#4,1,$000
 dn ___,0,$000
 dn ___,0,$220
 dn ___,0,$220
 dn C_5,5,$000
 dn ___,0,$000
 dn D#4,1,$000
 dn ___,0,$000
 dn ___,0,$E00
 dn ___,0,$000
 dn D#3,1,$000
 dn ___,0,$000
 dn D#4,1,$000
 dn ___,0,$000
 dn ___,0,$220
 dn ___,0,$220
 dn D#3,1,$000
 dn ___,0,$000
 dn D#4,1,$000
 dn ___,0,$000
 dn C_5,5,$E00
 dn ___,0,$000
 dn F#3,1,$000
 dn ___,0,$000
 dn F#4,1,$000
 dn ___,0,$000
 dn ___,0,$220
 dn ___,0,$220

P29:
 dn C_5,2,$2F0
 dn ___,0,$2F0
 dn ___,0,$E00
 dn ___,0,$000
 dn B_4,4,$000
 dn ___,0,$000
 dn ___,0,$000
 dn ___,0,$000
 dn C_5,2,$2F0
 dn ___,0,$2F0
 dn ___,0,$E00
 dn ___,0,$000
 dn B_4,4,$000
 dn ___,0,$000
 dn ___,0,$000
 dn ___,0,$000
 dn C_5,2,$2F0
 dn ___,0,$2F0
 dn ___,0,$E00
 dn ___,0,$000
 dn B_4,4,$000
 dn ___,0,$000
 dn ___,0,$000
 dn ___,0,$000
 dn C_5,2,$2F0
 dn ___,0,$2F0
 dn ___,0,$E00
 dn ___,0,$000
 dn B_4,4,$000
 dn ___,0,$000
 dn ___,0,$000
 dn ___,0,$000
 dn C_5,2,$2F0
 dn ___,0,$2F0
 dn ___,0,$E00
 dn ___,0,$000
 dn C#5,4,$000
 dn ___,0,$000
 dn ___,0,$000
 dn ___,0,$000
 dn C_5,2,$2F0
 dn ___,0,$2F0
 dn ___,0,$E00
 dn ___,0,$000
 dn C#5,4,$000
 dn ___,0,$000
 dn ___,0,$000
 dn ___,0,$000
 dn C_5,2,$2F0
 dn ___,0,$2F0
 dn ___,0,$E00
 dn ___,0,$000
 dn C#5,4,$000
 dn ___,0,$000
 dn ___,0,$000
 dn ___,0,$000
 dn C_5,2,$2F0
 dn ___,0,$2F0
 dn ___,0,$E00
 dn ___,0,$000
 dn C#5,4,$000
 dn ___,0,$000
 dn ___,0,$000
 dn ___,0,$000

P30:
 dn E_4,5,$000
 dn ___,0,$000
 dn E_3,3,$000
 dn ___,0,$000
 dn E_4,4,$000
 dn ___,0,$000
 dn E_3,3,$000
 dn ___,0,$000
 dn F#4,5,$000
 dn ___,0,$000
 dn E_3,3,$000
 dn ___,0,$000
 dn E_4,5,$000
 dn ___,0,$000
 dn E_3,3,$000
 dn ___,0,$000
 dn F#4,5,$000
 dn ___,0,$000
 dn E_3,3,$000
 dn ___,0,$000
 dn E_4,5,$000
 dn ___,0,$000
 dn E_3,3,$000
 dn ___,0,$000
 dn F#4,5,$000
 dn ___,0,$000
 dn E_3,3,$000
 dn ___,0,$000
 dn E_4,5,$000
 dn ___,0,$000
 dn E_3,3,$000
 dn ___,0,$000
 dn F#4,5,$000
 dn ___,0,$000
 dn F#3,3,$000
 dn ___,0,$000
 dn F#4,4,$000
 dn ___,0,$000
 dn F#3,3,$000
 dn ___,0,$000
 dn G#4,5,$000
 dn ___,0,$000
 dn F#3,3,$000
 dn ___,0,$000
 dn F#4,5,$000
 dn ___,0,$000
 dn F#3,3,$000
 dn ___,0,$000
 dn G#4,5,$000
 dn ___,0,$000
 dn F#3,3,$000
 dn ___,0,$000
 dn F#4,5,$000
 dn ___,0,$000
 dn F#3,3,$000
 dn ___,0,$000
 dn G#4,5,$000
 dn ___,0,$000
 dn F#3,3,$000
 dn ___,0,$000
 dn F#4,5,$000
 dn ___,0,$000
 dn F#3,3,$000
 dn ___,0,$000

P32:
 dn G#3,1,$000
 dn ___,0,$000
 dn ___,0,$000
 dn ___,0,$000
 dn G#4,1,$000
 dn ___,0,$000
 dn ___,0,$220
 dn ___,0,$220
 dn C_5,5,$000
 dn ___,0,$000
 dn G#4,1,$000
 dn ___,0,$000
 dn ___,0,$E00
 dn ___,0,$000
 dn G#3,1,$000
 dn ___,0,$000
 dn G#4,1,$000
 dn ___,0,$000
 dn ___,0,$220
 dn ___,0,$220
 dn G#3,1,$000
 dn ___,0,$000
 dn G#4,1,$000
 dn ___,0,$000
 dn C_5,5,$E00
 dn ___,0,$000
 dn G#3,1,$000
 dn ___,0,$000
 dn G#4,1,$000
 dn ___,0,$000
 dn ___,0,$220
 dn ___,0,$220
 dn G#3,1,$000
 dn ___,0,$000
 dn ___,0,$000
 dn ___,0,$000
 dn G#4,1,$000
 dn ___,0,$000
 dn ___,0,$220
 dn ___,0,$220
 dn C_5,5,$000
 dn ___,0,$000
 dn G#4,1,$000
 dn ___,0,$000
 dn ___,0,$E00
 dn ___,0,$000
 dn G#3,1,$000
 dn ___,0,$000
 dn G#4,1,$000
 dn ___,0,$000
 dn ___,0,$220
 dn ___,0,$220
 dn G#3,1,$000
 dn ___,0,$000
 dn G#4,1,$000
 dn ___,0,$000
 dn C_5,5,$E00
 dn ___,0,$000
 dn G#3,1,$000
 dn ___,0,$000
 dn C_5,5,$E00
 dn ___,0,$000
 dn C_5,5,$E00
 dn ___,0,$000

P33:
 dn C_5,2,$2F0
 dn ___,0,$2F0
 dn ___,0,$E00
 dn ___,0,$000
 dn D#5,3,$000
 dn ___,0,$000
 dn ___,0,$000
 dn ___,0,$000
 dn C_5,2,$2F0
 dn ___,0,$2F0
 dn ___,0,$E00
 dn ___,0,$000
 dn D#5,3,$000
 dn ___,0,$000
 dn ___,0,$000
 dn ___,0,$000
 dn C_5,2,$2F0
 dn ___,0,$2F0
 dn ___,0,$E00
 dn ___,0,$000
 dn D#5,3,$000
 dn ___,0,$000
 dn ___,0,$000
 dn ___,0,$000
 dn C_5,2,$2F0
 dn ___,0,$2F0
 dn ___,0,$E00
 dn ___,0,$000
 dn D#5,3,$000
 dn ___,0,$000
 dn ___,0,$000
 dn ___,0,$000
 dn C_5,2,$2F0
 dn ___,0,$2F0
 dn ___,0,$E00
 dn ___,0,$000
 dn D#5,3,$000
 dn ___,0,$000
 dn ___,0,$000
 dn ___,0,$000
 dn C_5,2,$2F0
 dn ___,0,$2F0
 dn ___,0,$E00
 dn ___,0,$000
 dn D#5,3,$000
 dn ___,0,$000
 dn ___,0,$000
 dn ___,0,$000
 dn C_5,2,$2F0
 dn ___,0,$2F0
 dn ___,0,$E00
 dn ___,0,$000
 dn D#5,3,$000
 dn ___,0,$000
 dn ___,0,$000
 dn ___,0,$000
 dn C_5,2,$2F0
 dn ___,0,$2F0
 dn ___,0,$E00
 dn ___,0,$000
 dn D#5,3,$000
 dn ___,0,$000
 dn ___,0,$000
 dn ___,0,$000

P34:
 dn G#4,5,$000
 dn ___,0,$000
 dn B_3,4,$000
 dn ___,0,$000
 dn E_4,3,$000
 dn ___,0,$000
 dn B_3,4,$000
 dn ___,0,$000
 dn F#4,4,$000
 dn ___,0,$000
 dn B_3,4,$000
 dn ___,0,$000
 dn G#4,5,$000
 dn ___,0,$000
 dn B_3,4,$000
 dn ___,0,$000
 dn F#4,4,$000
 dn ___,0,$000
 dn B_3,4,$000
 dn ___,0,$000
 dn G#4,5,$000
 dn ___,0,$000
 dn B_3,4,$000
 dn ___,0,$000
 dn F#4,5,$000
 dn ___,0,$000
 dn B_3,4,$000
 dn ___,0,$000
 dn G#4,5,$000
 dn ___,0,$000
 dn B_3,4,$000
 dn ___,0,$000
 dn F#4,5,$000
 dn ___,0,$000
 dn B_3,4,$000
 dn ___,0,$000
 dn G#4,5,$000
 dn ___,0,$000
 dn B_3,4,$000
 dn ___,0,$000
 dn F#4,5,$C08
 dn ___,0,$000
 dn B_3,4,$C08
 dn ___,0,$000
 dn G#4,5,$C08
 dn ___,0,$000
 dn B_3,4,$C08
 dn ___,0,$000
 dn F#4,5,$C04
 dn ___,0,$000
 dn B_3,4,$C04
 dn ___,0,$000
 dn G#4,5,$C04
 dn ___,0,$000
 dn B_3,4,$C04
 dn ___,0,$000
 dn F#4,5,$C04
 dn ___,0,$000
 dn B_3,4,$C04
 dn ___,0,$000
 dn G#4,5,$C04
 dn ___,0,$000
 dn B_3,4,$C04
 dn ___,0,$000

P36:
 dn E_4,3,$000
 dn ___,0,$000
 dn B_3,4,$000
 dn ___,0,$000
 dn B_4,4,$000
 dn ___,0,$000
 dn B_3,4,$000
 dn ___,0,$000
 dn F#4,3,$000
 dn ___,0,$000
 dn B_3,4,$000
 dn ___,0,$000
 dn E_4,3,$000
 dn ___,0,$000
 dn B_3,4,$000
 dn ___,0,$000
 dn F#4,3,$000
 dn ___,0,$000
 dn B_3,4,$000
 dn ___,0,$000
 dn E_4,3,$000
 dn ___,0,$000
 dn B_3,4,$000
 dn ___,0,$000
 dn F#4,4,$000
 dn ___,0,$000
 dn B_3,4,$000
 dn ___,0,$000
 dn E_4,3,$000
 dn ___,0,$000
 dn B_3,4,$000
 dn ___,0,$000
 dn F#4,4,$000
 dn ___,0,$000
 dn F#3,3,$000
 dn ___,0,$000
 dn F#4,3,$000
 dn ___,0,$000
 dn F#3,3,$000
 dn ___,0,$000
 dn E_4,3,$000
 dn ___,0,$000
 dn F#3,3,$000
 dn ___,0,$000
 dn F#4,4,$000
 dn ___,0,$000
 dn F#3,3,$000
 dn ___,0,$000
 dn E_4,3,$000
 dn ___,0,$000
 dn F#3,3,$000
 dn ___,0,$000
 dn F#4,4,$000
 dn ___,0,$000
 dn F#3,3,$000
 dn ___,0,$000
 dn C#4,3,$000
 dn ___,0,$000
 dn F#3,3,$000
 dn ___,0,$000
 dn F#4,4,$000
 dn ___,0,$000
 dn F#3,3,$000
 dn ___,0,$000

P37:
 dn F_4,4,$000
 dn ___,0,$000
 dn F_3,3,$000
 dn ___,0,$000
 dn F_4,3,$000
 dn ___,0,$000
 dn F_3,3,$000
 dn ___,0,$000
 dn D#4,3,$000
 dn ___,0,$000
 dn F_3,3,$000
 dn ___,0,$000
 dn F_4,4,$000
 dn ___,0,$000
 dn F_3,3,$000
 dn ___,0,$000
 dn D#4,3,$000
 dn ___,0,$000
 dn F_3,3,$000
 dn ___,0,$000
 dn F_4,4,$000
 dn ___,0,$000
 dn F_3,3,$000
 dn ___,0,$000
 dn C_4,3,$000
 dn ___,0,$000
 dn F_3,3,$000
 dn ___,0,$000
 dn F_4,4,$000
 dn ___,0,$000
 dn F_3,3,$000
 dn ___,0,$000
 dn C_4,3,$000
 dn ___,0,$000
 dn F_3,3,$000
 dn ___,0,$000
 dn F_4,4,$000
 dn ___,0,$000
 dn F_3,3,$000
 dn ___,0,$000
 dn C_4,3,$C08
 dn ___,0,$000
 dn F_3,3,$C08
 dn ___,0,$000
 dn F_4,4,$C08
 dn ___,0,$000
 dn F_3,3,$C08
 dn ___,0,$000
 dn C_4,3,$C04
 dn ___,0,$000
 dn F_3,3,$C04
 dn ___,0,$000
 dn F_4,4,$C04
 dn ___,0,$000
 dn F_3,3,$C04
 dn ___,0,$000
 dn C_4,3,$C04
 dn ___,0,$000
 dn F_3,3,$C04
 dn ___,0,$000
 dn F_4,4,$C04
 dn ___,0,$000
 dn F_3,3,$C04
 dn ___,0,$000

P38:
 dn E_4,4,$000
 dn ___,0,$000
 dn E_3,3,$000
 dn ___,0,$000
 dn E_4,3,$000
 dn ___,0,$000
 dn E_3,3,$000
 dn ___,0,$000
 dn F#4,4,$000
 dn ___,0,$000
 dn E_3,3,$000
 dn ___,0,$000
 dn E_4,4,$000
 dn ___,0,$000
 dn E_3,3,$000
 dn ___,0,$000
 dn F#4,4,$000
 dn ___,0,$000
 dn E_3,3,$000
 dn ___,0,$000
 dn E_4,4,$000
 dn ___,0,$000
 dn E_3,3,$000
 dn ___,0,$000
 dn B_3,3,$000
 dn ___,0,$000
 dn E_3,3,$000
 dn ___,0,$000
 dn E_4,4,$000
 dn ___,0,$000
 dn E_3,3,$000
 dn ___,0,$000
 dn F#4,4,$000
 dn ___,0,$000
 dn F#3,3,$000
 dn ___,0,$000
 dn F#4,3,$000
 dn ___,0,$000
 dn F#3,3,$000
 dn ___,0,$000
 dn E_4,3,$000
 dn ___,0,$000
 dn F#3,3,$000
 dn ___,0,$000
 dn F#4,4,$000
 dn ___,0,$000
 dn F#3,3,$000
 dn ___,0,$000
 dn E_4,3,$000
 dn ___,0,$000
 dn F#3,3,$000
 dn ___,0,$000
 dn F#4,4,$000
 dn ___,0,$000
 dn F#3,3,$000
 dn ___,0,$000
 dn C#4,3,$000
 dn ___,0,$000
 dn F#3,3,$000
 dn ___,0,$000
 dn F#4,4,$000
 dn ___,0,$000
 dn F#3,3,$000
 dn ___,0,$000

P39:
 dn C#3,1,$000
 dn ___,0,$000
 dn ___,0,$000
 dn ___,0,$000
 dn C#4,1,$000
 dn ___,0,$000
 dn ___,0,$220
 dn ___,0,$220
 dn C_5,5,$000
 dn ___,0,$000
 dn C#4,1,$000
 dn ___,0,$000
 dn ___,0,$E00
 dn ___,0,$000
 dn C#3,1,$000
 dn ___,0,$000
 dn C#4,1,$000
 dn ___,0,$000
 dn ___,0,$220
 dn ___,0,$220
 dn C#3,1,$000
 dn ___,0,$000
 dn C#4,1,$000
 dn ___,0,$000
 dn C_5,5,$000
 dn ___,0,$000
 dn C#3,1,$000
 dn ___,0,$000
 dn C#4,1,$000
 dn ___,0,$000
 dn ___,0,$220
 dn ___,0,$220
 dn D#3,1,$000
 dn ___,0,$000
 dn ___,0,$000
 dn ___,0,$000
 dn D#4,1,$000
 dn ___,0,$000
 dn ___,0,$220
 dn ___,0,$220
 dn C_5,5,$000
 dn ___,0,$000
 dn D#4,1,$000
 dn ___,0,$000
 dn ___,0,$E00
 dn ___,0,$000
 dn D#3,1,$000
 dn ___,0,$000
 dn D#4,1,$000
 dn ___,0,$000
 dn ___,0,$220
 dn ___,0,$220
 dn D#3,1,$000
 dn ___,0,$000
 dn D#4,1,$000
 dn ___,0,$000
 dn C_5,5,$E00
 dn ___,0,$000
 dn D#3,1,$000
 dn ___,0,$000
 dn D#4,1,$000
 dn ___,0,$000
 dn ___,0,$220
 dn ___,0,$220

P40:
 dn E_3,1,$000
 dn ___,0,$000
 dn ___,0,$000
 dn ___,0,$000
 dn E_4,1,$000
 dn ___,0,$000
 dn ___,0,$220
 dn ___,0,$220
 dn C_5,5,$000
 dn ___,0,$000
 dn E_4,1,$000
 dn ___,0,$000
 dn ___,0,$E00
 dn ___,0,$000
 dn E_3,1,$000
 dn ___,0,$000
 dn E_4,1,$000
 dn ___,0,$000
 dn ___,0,$220
 dn ___,0,$220
 dn E_3,1,$000
 dn ___,0,$000
 dn E_4,1,$000
 dn ___,0,$000
 dn C_5,5,$E00
 dn ___,0,$000
 dn E_3,1,$000
 dn ___,0,$000
 dn E_4,1,$000
 dn ___,0,$000
 dn ___,0,$220
 dn ___,0,$220
 dn D#4,1,$000
 dn ___,0,$000
 dn ___,0,$000
 dn ___,0,$000
 dn ___,0,$220
 dn ___,0,$220
 dn D_4,1,$000
 dn ___,0,$000
 dn ___,0,$000
 dn ___,0,$000
 dn ___,0,$220
 dn ___,0,$220
 dn C#4,1,$000
 dn ___,0,$000
 dn ___,0,$000
 dn ___,0,$000
 dn ___,0,$220
 dn ___,0,$220
 dn B_3,1,$000
 dn ___,0,$000
 dn ___,0,$000
 dn ___,0,$000
 dn ___,0,$220
 dn ___,0,$220
 dn G#3,1,$000
 dn ___,0,$000
 dn F#3,1,$000
 dn ___,0,$000
 dn E_3,1,$000
 dn ___,0,$000
 dn ___,0,$220
 dn ___,0,$220

P41:
 dn C_5,2,$2F0
 dn ___,0,$2F0
 dn ___,0,$E00
 dn ___,0,$000
 dn D#5,3,$000
 dn ___,0,$000
 dn ___,0,$000
 dn ___,0,$000
 dn C_5,2,$2F0
 dn ___,0,$2F0
 dn ___,0,$E00
 dn ___,0,$000
 dn D#5,3,$000
 dn ___,0,$000
 dn ___,0,$000
 dn ___,0,$000
 dn C_5,2,$2F0
 dn ___,0,$2F0
 dn ___,0,$E00
 dn ___,0,$000
 dn D#5,3,$000
 dn ___,0,$000
 dn ___,0,$000
 dn ___,0,$000
 dn C_5,2,$2F0
 dn ___,0,$2F0
 dn ___,0,$E00
 dn ___,0,$000
 dn D#5,3,$000
 dn ___,0,$000
 dn ___,0,$000
 dn ___,0,$000
 dn C_5,2,$2F0
 dn ___,0,$2F0
 dn ___,0,$E00
 dn ___,0,$000
 dn ___,0,$000
 dn ___,0,$000
 dn ___,0,$000
 dn ___,0,$000
 dn C_5,2,$2F0
 dn ___,0,$2F0
 dn ___,0,$E00
 dn ___,0,$000
 dn ___,0,$000
 dn ___,0,$000
 dn ___,0,$000
 dn ___,0,$000
 dn C_5,2,$2F0
 dn ___,0,$2F0
 dn ___,0,$E00
 dn ___,0,$000
 dn ___,0,$000
 dn ___,0,$000
 dn ___,0,$000
 dn ___,0,$000
 dn C_5,5,$000
 dn ___,0,$000
 dn ___,0,$000
 dn ___,0,$000
 dn C_5,5,$000
 dn ___,0,$000
 dn C_5,5,$000
 dn ___,0,$000

P42:
 dn E_4,3,$000
 dn ___,0,$000
 dn B_3,4,$000
 dn ___,0,$000
 dn B_4,4,$000
 dn ___,0,$000
 dn B_3,4,$000
 dn ___,0,$000
 dn F#4,3,$000
 dn ___,0,$000
 dn B_3,4,$000
 dn ___,0,$000
 dn E_4,3,$000
 dn ___,0,$000
 dn B_3,4,$000
 dn ___,0,$000
 dn F#4,3,$C08
 dn ___,0,$000
 dn B_3,4,$C08
 dn ___,0,$000
 dn E_4,3,$C08
 dn ___,0,$000
 dn B_3,4,$C08
 dn ___,0,$000
 dn F#4,4,$C04
 dn ___,0,$000
 dn B_3,4,$C04
 dn ___,0,$000
 dn E_4,3,$C04
 dn ___,0,$000
 dn B_3,4,$C04
 dn ___,0,$000
 dn C_6,6,$000
 dn ___,0,$000
 dn ___,0,$000
 dn ___,0,$000
 dn ___,0,$000
 dn ___,0,$000
 dn C_6,6,$000
 dn ___,0,$000
 dn ___,0,$000
 dn ___,0,$000
 dn ___,0,$000
 dn ___,0,$000
 dn C_6,6,$000
 dn ___,0,$000
 dn ___,0,$000
 dn ___,0,$000
 dn ___,0,$000
 dn ___,0,$000
 dn C_6,6,$000
 dn ___,0,$000
 dn ___,0,$000
 dn ___,0,$000
 dn ___,0,$000
 dn ___,0,$000
 dn G#6,1,$000
 dn ___,0,$000
 dn A#6,1,$000
 dn ___,0,$000
 dn B_6,1,$000
 dn ___,0,$000
 dn C#7,1,$000
 dn ___,0,$000

P43:
 dn A#7,1,$E01
 dn ___,0,$000
 dn A#7,1,$E02
 dn ___,0,$000
 dn A#7,1,$000
 dn ___,0,$000
 dn A#7,1,$E01
 dn ___,0,$000
 dn D#7,2,$000
 dn ___,0,$000
 dn ___,0,$000
 dn ___,0,$000
 dn A#7,1,$000
 dn ___,0,$000
 dn A#7,1,$E01
 dn ___,0,$000
 dn A#7,1,$E01
 dn ___,0,$000
 dn A#7,1,$E02
 dn ___,0,$000
 dn A#7,1,$000
 dn ___,0,$000
 dn A#7,1,$E01
 dn ___,0,$000
 dn D#7,2,$000
 dn ___,0,$000
 dn ___,0,$000
 dn ___,0,$000
 dn A#7,1,$000
 dn ___,0,$000
 dn A#7,1,$E01
 dn A#7,1,$E01
 dn D#7,2,$000
 dn ___,0,$000
 dn A#7,1,$E01
 dn ___,0,$000
 dn A#7,1,$E02
 dn ___,0,$000
 dn D#7,2,$000
 dn ___,0,$000
 dn A#7,1,$E02
 dn ___,0,$000
 dn A#7,1,$E01
 dn ___,0,$000
 dn D#7,2,$000
 dn ___,0,$000
 dn A#7,1,$E01
 dn ___,0,$000
 dn A#7,1,$E02
 dn ___,0,$000
 dn D#7,2,$000
 dn ___,0,$000
 dn A#7,1,$E02
 dn ___,0,$000
 dn A#7,1,$E01
 dn ___,0,$000
 dn D#7,2,$000
 dn ___,0,$000
 dn A#7,1,$E01
 dn ___,0,$000
 dn D#7,2,$000
 dn ___,0,$E00
 dn D#7,2,$000
 dn ___,0,$E00

P44:
 dn C#3,1,$000
 dn ___,0,$000
 dn ___,0,$000
 dn ___,0,$000
 dn C#4,1,$000
 dn ___,0,$000
 dn ___,0,$220
 dn ___,0,$220
 dn C_5,5,$000
 dn ___,0,$000
 dn C#4,1,$000
 dn ___,0,$000
 dn ___,0,$E00
 dn ___,0,$000
 dn C#3,1,$000
 dn ___,0,$000
 dn C#4,1,$000
 dn ___,0,$000
 dn ___,0,$220
 dn ___,0,$220
 dn C#3,1,$000
 dn ___,0,$000
 dn C#4,1,$000
 dn ___,0,$000
 dn C_5,5,$E00
 dn ___,0,$000
 dn C#3,1,$000
 dn ___,0,$000
 dn C#4,1,$000
 dn ___,0,$000
 dn ___,0,$220
 dn ___,0,$220
 dn D#3,1,$000
 dn ___,0,$000
 dn ___,0,$000
 dn ___,0,$000
 dn D#4,1,$000
 dn ___,0,$000
 dn ___,0,$220
 dn ___,0,$220
 dn C_5,5,$000
 dn ___,0,$000
 dn D#4,1,$000
 dn ___,0,$000
 dn ___,0,$E00
 dn ___,0,$000
 dn G#3,1,$000
 dn ___,0,$000
 dn G#4,1,$000
 dn ___,0,$000
 dn ___,0,$220
 dn ___,0,$220
 dn G#3,1,$000
 dn ___,0,$000
 dn G#4,1,$000
 dn ___,0,$000
 dn C_5,5,$E00
 dn ___,0,$000
 dn F#3,1,$000
 dn ___,0,$000
 dn F#4,1,$000
 dn ___,0,$000
 dn ___,0,$220
 dn ___,0,$220

P45:
 dn C_5,2,$2F0
 dn ___,0,$2F0
 dn ___,0,$E00
 dn ___,0,$000
 dn D#5,3,$000
 dn ___,0,$000
 dn ___,0,$000
 dn ___,0,$000
 dn C_5,2,$2F0
 dn ___,0,$2F0
 dn ___,0,$E00
 dn ___,0,$000
 dn D#5,3,$000
 dn ___,0,$000
 dn ___,0,$000
 dn ___,0,$000
 dn C_5,2,$2F0
 dn ___,0,$2F0
 dn ___,0,$E00
 dn ___,0,$000
 dn D#5,3,$000
 dn ___,0,$000
 dn ___,0,$000
 dn ___,0,$000
 dn C_5,2,$2F0
 dn ___,0,$2F0
 dn ___,0,$E00
 dn ___,0,$000
 dn D#5,3,$000
 dn ___,0,$000
 dn ___,0,$000
 dn ___,0,$000
 dn C_5,2,$2F0
 dn ___,0,$2F0
 dn ___,0,$E00
 dn ___,0,$000
 dn C#5,4,$000
 dn ___,0,$000
 dn ___,0,$000
 dn ___,0,$000
 dn C_5,2,$2F0
 dn ___,0,$2F0
 dn ___,0,$E00
 dn ___,0,$000
 dn C#5,4,$000
 dn ___,0,$000
 dn ___,0,$000
 dn ___,0,$000
 dn C_5,2,$2F0
 dn ___,0,$2F0
 dn ___,0,$E00
 dn ___,0,$000
 dn D#5,8,$000
 dn ___,0,$000
 dn ___,0,$000
 dn ___,0,$000
 dn C_5,2,$2F0
 dn ___,0,$2F0
 dn ___,0,$E00
 dn ___,0,$000
 dn C#5,4,$000
 dn ___,0,$000
 dn ___,0,$000
 dn ___,0,$000

P46:
 dn E_3,1,$000
 dn ___,0,$000
 dn ___,0,$000
 dn ___,0,$000
 dn E_4,1,$000
 dn ___,0,$000
 dn ___,0,$220
 dn ___,0,$220
 dn C_5,5,$000
 dn ___,0,$000
 dn E_4,1,$000
 dn ___,0,$000
 dn ___,0,$E00
 dn ___,0,$000
 dn E_3,1,$000
 dn ___,0,$000
 dn E_4,1,$000
 dn ___,0,$000
 dn ___,0,$220
 dn ___,0,$220
 dn E_3,1,$000
 dn ___,0,$000
 dn E_4,1,$000
 dn ___,0,$000
 dn C_5,5,$E00
 dn ___,0,$000
 dn E_3,1,$000
 dn ___,0,$000
 dn E_4,1,$000
 dn ___,0,$000
 dn ___,0,$220
 dn ___,0,$220
 dn F#3,1,$000
 dn ___,0,$000
 dn ___,0,$000
 dn ___,0,$000
 dn F#4,1,$000
 dn ___,0,$000
 dn ___,0,$220
 dn ___,0,$220
 dn C_5,5,$000
 dn ___,0,$000
 dn F#4,1,$000
 dn ___,0,$000
 dn ___,0,$E00
 dn ___,0,$000
 dn B_3,1,$000
 dn ___,0,$000
 dn B_4,1,$000
 dn ___,0,$000
 dn ___,0,$220
 dn ___,0,$220
 dn B_3,1,$000
 dn ___,0,$000
 dn B_4,1,$000
 dn ___,0,$000
 dn C_5,5,$E00
 dn ___,0,$000
 dn A#4,1,$000
 dn ___,0,$000
 dn G#4,1,$000
 dn ___,0,$000
 dn F#4,1,$000
 dn ___,0,$000

P47:
 dn C_5,2,$2F0
 dn ___,0,$2F0
 dn ___,0,$E00
 dn ___,0,$000
 dn D#5,3,$000
 dn ___,0,$000
 dn ___,0,$000
 dn ___,0,$000
 dn C_5,2,$2F0
 dn ___,0,$2F0
 dn ___,0,$E00
 dn ___,0,$000
 dn D#5,3,$000
 dn ___,0,$000
 dn ___,0,$000
 dn ___,0,$000
 dn C_5,2,$2F0
 dn ___,0,$2F0
 dn ___,0,$E00
 dn ___,0,$000
 dn D#5,3,$000
 dn ___,0,$000
 dn ___,0,$000
 dn ___,0,$000
 dn C_5,2,$2F0
 dn ___,0,$2F0
 dn ___,0,$E00
 dn ___,0,$000
 dn D#5,3,$000
 dn ___,0,$000
 dn ___,0,$000
 dn ___,0,$000
 dn C_5,2,$2F0
 dn ___,0,$2F0
 dn ___,0,$E00
 dn ___,0,$000
 dn C#5,4,$000
 dn ___,0,$000
 dn ___,0,$000
 dn ___,0,$000
 dn C_5,2,$2F0
 dn ___,0,$2F0
 dn ___,0,$E00
 dn ___,0,$000
 dn C#5,4,$000
 dn ___,0,$000
 dn ___,0,$000
 dn ___,0,$000
 dn C_5,2,$2F0
 dn ___,0,$2F0
 dn ___,0,$E00
 dn ___,0,$000
 dn D#5,3,$000
 dn ___,0,$000
 dn ___,0,$000
 dn ___,0,$000
 dn C_5,2,$2F0
 dn ___,0,$2F0
 dn ___,0,$E00
 dn ___,0,$000
 dn C#5,4,$000
 dn ___,0,$000
 dn ___,0,$000
 dn ___,0,$000

P48:
 dn E_3,1,$000
 dn ___,0,$000
 dn ___,0,$000
 dn ___,0,$000
 dn E_4,1,$000
 dn ___,0,$000
 dn ___,0,$220
 dn ___,0,$220
 dn C_5,5,$000
 dn ___,0,$000
 dn E_4,1,$000
 dn ___,0,$000
 dn ___,0,$E00
 dn ___,0,$000
 dn F#3,1,$000
 dn ___,0,$000
 dn F#4,1,$000
 dn ___,0,$000
 dn ___,0,$220
 dn ___,0,$220
 dn F#3,1,$000
 dn ___,0,$000
 dn F#4,1,$000
 dn ___,0,$000
 dn C_5,5,$E00
 dn ___,0,$000
 dn F#3,1,$000
 dn ___,0,$000
 dn F#4,1,$000
 dn ___,0,$000
 dn ___,0,$220
 dn ___,0,$220
 dn G#4,1,$000
 dn ___,0,$000
 dn ___,0,$000
 dn ___,0,$000
 dn ___,0,$220
 dn ___,0,$220
 dn ___,0,$220
 dn ___,0,$220
 dn ___,0,$220
 dn ___,0,$220
 dn ___,0,$220
 dn ___,0,$220
 dn ___,0,$220
 dn ___,0,$220
 dn ___,0,$220
 dn ___,0,$220
 dn ___,0,$220
 dn ___,0,$220
 dn ___,0,$220
 dn ___,0,$220
 dn ___,0,$220
 dn ___,0,$220
 dn ___,0,$220
 dn ___,0,$220
 dn ___,0,$220
 dn ___,0,$220
 dn ___,0,$220
 dn ___,0,$220
 dn ___,0,$220
 dn ___,0,$220
 dn ___,0,$220
 dn ___,0,$220

P53:
 dn A#3,1,$000
 dn ___,0,$000
 dn ___,0,$000
 dn ___,0,$000
 dn A#4,1,$000
 dn ___,0,$000
 dn ___,0,$220
 dn ___,0,$220
 dn C_5,5,$000
 dn ___,0,$000
 dn A#4,1,$000
 dn ___,0,$000
 dn ___,0,$E00
 dn ___,0,$000
 dn A#3,1,$000
 dn ___,0,$000
 dn A#4,1,$000
 dn ___,0,$000
 dn ___,0,$220
 dn ___,0,$220
 dn A#3,1,$000
 dn ___,0,$000
 dn A#4,1,$000
 dn ___,0,$000
 dn C_5,5,$E00
 dn ___,0,$000
 dn A#3,1,$000
 dn ___,0,$000
 dn A#4,1,$000
 dn ___,0,$000
 dn ___,0,$220
 dn ___,0,$220
 dn F#3,1,$000
 dn ___,0,$000
 dn ___,0,$000
 dn ___,0,$000
 dn F#4,1,$000
 dn ___,0,$000
 dn ___,0,$220
 dn ___,0,$220
 dn C_5,5,$000
 dn ___,0,$000
 dn F#4,1,$000
 dn ___,0,$000
 dn ___,0,$E00
 dn ___,0,$000
 dn F_3,1,$000
 dn ___,0,$000
 dn F_4,1,$000
 dn ___,0,$000
 dn ___,0,$220
 dn ___,0,$220
 dn F_3,1,$000
 dn ___,0,$000
 dn F_4,1,$000
 dn ___,0,$000
 dn C_5,5,$E00
 dn ___,0,$000
 dn F_3,1,$000
 dn ___,0,$000
 dn F_4,1,$000
 dn ___,0,$000
 dn ___,0,$220
 dn ___,0,$220

P54:
 dn C_5,2,$2F0
 dn ___,0,$2F0
 dn C#5,9,$000
 dn ___,0,$000
 dn F_5,9,$000
 dn ___,0,$000
 dn G#5,9,$000
 dn ___,0,$000
 dn C_5,2,$2F0
 dn ___,0,$2F0
 dn F_5,9,$000
 dn ___,0,$000
 dn G#5,9,$000
 dn ___,0,$000
 dn A#5,9,$000
 dn ___,0,$000
 dn C_5,2,$2F0
 dn ___,0,$2F0
 dn G#5,9,$000
 dn ___,0,$000
 dn A#5,9,$000
 dn ___,0,$000
 dn C#6,9,$000
 dn ___,0,$000
 dn C_5,2,$2F0
 dn ___,0,$2F0
 dn A#5,9,$000
 dn ___,0,$000
 dn C#6,9,$000
 dn ___,0,$000
 dn F_6,9,$000
 dn ___,0,$000
 dn C_5,2,$2F0
 dn ___,0,$2F0
 dn C#5,9,$000
 dn ___,0,$000
 dn F_5,9,$000
 dn ___,0,$000
 dn G#5,9,$000
 dn ___,0,$000
 dn C_5,2,$2F0
 dn ___,0,$2F0
 dn F_5,9,$000
 dn ___,0,$000
 dn G#5,9,$000
 dn ___,0,$000
 dn A#5,9,$000
 dn ___,0,$000
 dn C_5,2,$2F0
 dn ___,0,$2F0
 dn G#5,9,$000
 dn ___,0,$000
 dn A#5,9,$000
 dn ___,0,$000
 dn C#6,9,$000
 dn ___,0,$000
 dn C_5,2,$2F0
 dn ___,0,$2F0
 dn A#5,9,$000
 dn ___,0,$000
 dn C#6,9,$000
 dn ___,0,$000
 dn F_6,9,$000
 dn ___,0,$000

P55:
 dn G#6,2,$102
 dn A#6,2,$308
 dn ___,0,$308
 dn ___,0,$308
 dn C#4,4,$000
 dn ___,0,$000
 dn A#6,2,$000
 dn ___,0,$000
 dn ___,0,$000
 dn ___,0,$000
 dn C#4,4,$000
 dn ___,0,$000
 dn A#6,2,$000
 dn ___,0,$000
 dn C#4,4,$000
 dn ___,0,$000
 dn A#6,2,$000
 dn ___,0,$000
 dn ___,0,$000
 dn ___,0,$000
 dn C#4,4,$000
 dn ___,0,$000
 dn A#6,2,$000
 dn ___,0,$000
 dn ___,0,$000
 dn ___,0,$000
 dn C#4,4,$000
 dn ___,0,$000
 dn A#6,2,$000
 dn ___,0,$000
 dn C#4,4,$000
 dn ___,0,$000
 dn C_7,2,$102
 dn C#7,2,$308
 dn ___,0,$308
 dn ___,0,$308
 dn F#4,5,$000
 dn ___,0,$000
 dn C_7,2,$000
 dn ___,0,$000
 dn ___,0,$000
 dn ___,0,$000
 dn F#4,5,$000
 dn ___,0,$000
 dn A#6,2,$000
 dn ___,0,$000
 dn F#4,5,$000
 dn ___,0,$000
 dn G#6,2,$000
 dn ___,0,$000
 dn ___,0,$000
 dn ___,0,$000
 dn G#4,5,$000
 dn ___,0,$000
 dn A#6,2,$000
 dn ___,0,$000
 dn ___,0,$000
 dn ___,0,$000
 dn G#4,5,$000
 dn ___,0,$000
 dn G#6,2,$000
 dn ___,0,$000
 dn G#4,5,$000
 dn ___,0,$000

P56:
 dn G#6,2,$102
 dn A#6,2,$308
 dn ___,0,$308
 dn ___,0,$308
 dn C#4,4,$000
 dn ___,0,$000
 dn A#6,2,$000
 dn ___,0,$000
 dn ___,0,$000
 dn ___,0,$000
 dn C#4,4,$000
 dn ___,0,$000
 dn A#6,2,$000
 dn ___,0,$000
 dn C#4,4,$000
 dn ___,0,$000
 dn A#6,2,$000
 dn ___,0,$000
 dn ___,0,$000
 dn ___,0,$000
 dn C#4,4,$000
 dn ___,0,$000
 dn A#6,2,$000
 dn ___,0,$000
 dn ___,0,$000
 dn ___,0,$000
 dn C#4,4,$000
 dn ___,0,$000
 dn A#6,2,$000
 dn ___,0,$000
 dn C#4,4,$000
 dn ___,0,$000
 dn C_7,2,$102
 dn C#7,2,$308
 dn ___,0,$308
 dn ___,0,$308
 dn F#4,5,$000
 dn ___,0,$000
 dn C_7,2,$000
 dn ___,0,$000
 dn ___,0,$000
 dn ___,0,$000
 dn F#4,5,$000
 dn ___,0,$000
 dn A#6,2,$000
 dn ___,0,$000
 dn F#4,5,$000
 dn ___,0,$000
 dn G#6,2,$000
 dn ___,0,$000
 dn ___,0,$000
 dn ___,0,$000
 dn G#4,5,$000
 dn ___,0,$000
 dn C#7,2,$102
 dn D#7,2,$308
 dn ___,0,$308
 dn ___,0,$308
 dn G#4,5,$000
 dn ___,0,$000
 dn C#7,2,$000
 dn ___,0,$000
 dn G#4,5,$000
 dn ___,0,$000

P59:
 dn D#6,2,$102
 dn F_6,2,$308
 dn ___,0,$308
 dn ___,0,$308
 dn C#4,4,$000
 dn ___,0,$000
 dn F_6,2,$000
 dn ___,0,$000
 dn ___,0,$000
 dn ___,0,$000
 dn C#4,4,$000
 dn ___,0,$000
 dn F_6,2,$000
 dn ___,0,$000
 dn C#4,4,$000
 dn ___,0,$000
 dn F_6,2,$000
 dn ___,0,$000
 dn ___,0,$000
 dn ___,0,$000
 dn C#4,4,$000
 dn ___,0,$000
 dn F_6,2,$000
 dn ___,0,$000
 dn ___,0,$000
 dn ___,0,$000
 dn C#4,4,$000
 dn ___,0,$000
 dn F_6,2,$000
 dn ___,0,$000
 dn C#4,4,$000
 dn ___,0,$000
 dn D#6,2,$000
 dn ___,0,$000
 dn F_6,2,$000
 dn ___,0,$000
 dn F#4,5,$000
 dn ___,0,$000
 dn G#6,2,$000
 dn ___,0,$000
 dn F#4,5,$000
 dn ___,0,$000
 dn D#6,2,$000
 dn ___,0,$000
 dn F_6,2,$000
 dn ___,0,$000
 dn F#4,5,$000
 dn ___,0,$000
 dn D#6,2,$000
 dn ___,0,$000
 dn F_6,2,$000
 dn ___,0,$000
 dn F#4,5,$000
 dn ___,0,$000
 dn G#6,2,$000
 dn ___,0,$000
 dn F#4,5,$000
 dn ___,0,$000
 dn D#6,2,$000
 dn ___,0,$000
 dn F_6,2,$000
 dn ___,0,$000
 dn F#4,5,$000
 dn ___,0,$000

P60:
 dn A#3,1,$000
 dn ___,0,$000
 dn ___,0,$000
 dn ___,0,$000
 dn A#4,1,$000
 dn ___,0,$000
 dn ___,0,$220
 dn ___,0,$220
 dn C_5,5,$000
 dn ___,0,$000
 dn A#4,1,$000
 dn ___,0,$000
 dn ___,0,$E00
 dn ___,0,$000
 dn A#3,1,$000
 dn ___,0,$000
 dn A#4,1,$000
 dn ___,0,$000
 dn ___,0,$220
 dn ___,0,$220
 dn A#3,1,$000
 dn ___,0,$000
 dn A#4,1,$000
 dn ___,0,$000
 dn C_5,5,$E00
 dn ___,0,$000
 dn A#3,1,$000
 dn ___,0,$000
 dn A#4,1,$000
 dn ___,0,$000
 dn ___,0,$220
 dn ___,0,$220
 dn F#3,1,$000
 dn ___,0,$000
 dn ___,0,$000
 dn ___,0,$000
 dn F#4,1,$000
 dn ___,0,$000
 dn ___,0,$220
 dn ___,0,$220
 dn C_5,5,$000
 dn ___,0,$000
 dn F#4,1,$000
 dn ___,0,$000
 dn ___,0,$E00
 dn ___,0,$000
 dn G#3,1,$000
 dn ___,0,$000
 dn G#4,1,$000
 dn ___,0,$000
 dn ___,0,$220
 dn ___,0,$220
 dn G#3,1,$000
 dn ___,0,$000
 dn G#4,1,$000
 dn ___,0,$000
 dn D#5,5,$E00
 dn ___,0,$000
 dn G#3,1,$000
 dn ___,0,$000
 dn G#4,1,$000
 dn ___,0,$000
 dn ___,0,$220
 dn ___,0,$220

P61:
 dn C#3,1,$000
 dn ___,0,$000
 dn ___,0,$000
 dn ___,0,$000
 dn C#4,1,$000
 dn ___,0,$000
 dn ___,0,$220
 dn ___,0,$220
 dn C_5,5,$000
 dn ___,0,$000
 dn C#4,1,$000
 dn ___,0,$000
 dn ___,0,$E00
 dn ___,0,$000
 dn C#3,1,$000
 dn ___,0,$000
 dn C#4,1,$000
 dn ___,0,$000
 dn ___,0,$220
 dn ___,0,$220
 dn C#3,1,$000
 dn ___,0,$000
 dn C#4,1,$000
 dn ___,0,$000
 dn C_5,5,$E00
 dn ___,0,$000
 dn C#3,1,$000
 dn ___,0,$000
 dn C#4,1,$000
 dn ___,0,$000
 dn ___,0,$220
 dn ___,0,$220
 dn D#3,1,$000
 dn ___,0,$000
 dn ___,0,$000
 dn ___,0,$000
 dn D#4,1,$000
 dn ___,0,$000
 dn ___,0,$220
 dn ___,0,$220
 dn C_5,5,$000
 dn ___,0,$000
 dn D#4,1,$000
 dn ___,0,$000
 dn ___,0,$E00
 dn ___,0,$000
 dn F_3,1,$000
 dn ___,0,$000
 dn F_4,1,$000
 dn ___,0,$000
 dn ___,0,$220
 dn ___,0,$220
 dn F_3,1,$000
 dn ___,0,$000
 dn F_4,1,$000
 dn ___,0,$000
 dn D#5,5,$E00
 dn ___,0,$000
 dn F_3,1,$000
 dn ___,0,$000
 dn F_4,1,$000
 dn ___,0,$000
 dn D#5,5,$000
 dn ___,0,$000

P62:
 dn C#7,2,$102
 dn D#7,2,$308
 dn ___,0,$308
 dn ___,0,$308
 dn G#4,5,$000
 dn ___,0,$000
 dn F_7,2,$000
 dn ___,0,$000
 dn ___,0,$000
 dn ___,0,$000
 dn G#4,5,$000
 dn ___,0,$000
 dn F_7,2,$000
 dn ___,0,$000
 dn G#4,5,$000
 dn ___,0,$000
 dn F_7,2,$000
 dn ___,0,$000
 dn ___,0,$000
 dn ___,0,$000
 dn G#4,5,$000
 dn ___,0,$000
 dn F_7,2,$000
 dn ___,0,$000
 dn ___,0,$000
 dn ___,0,$000
 dn G#4,5,$000
 dn ___,0,$000
 dn D#7,2,$000
 dn ___,0,$000
 dn G#4,5,$000
 dn ___,0,$000
 dn C_7,2,$102
 dn C#7,2,$308
 dn ___,0,$308
 dn ___,0,$308
 dn F#4,5,$000
 dn ___,0,$000
 dn C_7,2,$000
 dn ___,0,$000
 dn ___,0,$000
 dn ___,0,$000
 dn F#4,5,$000
 dn ___,0,$000
 dn A#6,2,$000
 dn ___,0,$000
 dn F#4,5,$000
 dn ___,0,$000
 dn G#6,2,$000
 dn ___,0,$000
 dn ___,0,$000
 dn ___,0,$000
 dn G#4,5,$000
 dn ___,0,$000
 dn C#7,2,$102
 dn D#7,2,$308
 dn ___,0,$308
 dn ___,0,$308
 dn G#4,5,$000
 dn ___,0,$000
 dn C#7,2,$000
 dn ___,0,$000
 dn G#4,5,$000
 dn ___,0,$000

P64:
 dn F_3,1,$000
 dn ___,0,$000
 dn ___,0,$000
 dn ___,0,$000
 dn F_4,1,$000
 dn ___,0,$000
 dn ___,0,$220
 dn ___,0,$220
 dn C_5,5,$000
 dn ___,0,$000
 dn F_4,1,$000
 dn ___,0,$000
 dn ___,0,$E00
 dn ___,0,$000
 dn F_3,1,$000
 dn ___,0,$000
 dn F_4,1,$000
 dn ___,0,$000
 dn ___,0,$220
 dn ___,0,$220
 dn F_3,1,$000
 dn ___,0,$000
 dn F_4,1,$000
 dn ___,0,$000
 dn C_5,5,$E00
 dn ___,0,$000
 dn F_3,1,$000
 dn ___,0,$000
 dn F_4,1,$000
 dn ___,0,$000
 dn ___,0,$220
 dn ___,0,$220
 dn E_4,1,$000
 dn ___,0,$000
 dn ___,0,$000
 dn ___,0,$000
 dn ___,0,$220
 dn ___,0,$220
 dn D#4,1,$000
 dn ___,0,$000
 dn ___,0,$000
 dn ___,0,$000
 dn ___,0,$220
 dn ___,0,$220
 dn D_4,1,$000
 dn ___,0,$000
 dn ___,0,$000
 dn ___,0,$000
 dn ___,0,$220
 dn ___,0,$220
 dn C#4,1,$000
 dn ___,0,$000
 dn ___,0,$000
 dn ___,0,$000
 dn ___,0,$220
 dn ___,0,$220
 dn A#3,1,$000
 dn ___,0,$000
 dn G#3,1,$000
 dn ___,0,$000
 dn F#3,1,$000
 dn ___,0,$000
 dn ___,0,$220
 dn ___,0,$220

P65:
 dn C_5,2,$2F0
 dn ___,0,$2F0
 dn C#5,9,$000
 dn ___,0,$000
 dn F_5,9,$000
 dn ___,0,$000
 dn G#5,9,$000
 dn ___,0,$000
 dn C_5,2,$2F0
 dn ___,0,$2F0
 dn F_5,9,$000
 dn ___,0,$000
 dn G#5,9,$000
 dn ___,0,$000
 dn A#5,9,$000
 dn ___,0,$000
 dn C_5,2,$2F0
 dn ___,0,$2F0
 dn G#5,9,$000
 dn ___,0,$000
 dn A#5,9,$000
 dn ___,0,$000
 dn C#6,9,$000
 dn ___,0,$000
 dn C_5,2,$2F0
 dn ___,0,$2F0
 dn A#5,9,$000
 dn ___,0,$000
 dn C#6,9,$000
 dn ___,0,$000
 dn F_6,9,$000
 dn ___,0,$000
 dn C_5,2,$2F0
 dn ___,0,$2F0
 dn ___,0,$E00
 dn ___,0,$000
 dn ___,0,$000
 dn ___,0,$000
 dn ___,0,$000
 dn ___,0,$000
 dn ___,0,$000
 dn ___,0,$000
 dn ___,0,$000
 dn ___,0,$000
 dn ___,0,$000
 dn ___,0,$000
 dn ___,0,$000
 dn ___,0,$000
 dn ___,0,$000
 dn ___,0,$000
 dn ___,0,$000
 dn ___,0,$000
 dn ___,0,$000
 dn ___,0,$000
 dn ___,0,$000
 dn ___,0,$000
 dn C_5,5,$000
 dn ___,0,$000
 dn C_5,5,$000
 dn ___,0,$000
 dn C_5,5,$000
 dn ___,0,$000
 dn C_5,5,$000
 dn ___,0,$000

P66:
 dn C#7,2,$102
 dn D#7,2,$308
 dn ___,0,$308
 dn ___,0,$308
 dn G#4,5,$000
 dn ___,0,$000
 dn F_7,2,$000
 dn ___,0,$000
 dn ___,0,$000
 dn ___,0,$000
 dn G#4,5,$000
 dn ___,0,$000
 dn F_7,2,$000
 dn ___,0,$000
 dn G#4,5,$000
 dn ___,0,$000
 dn F_7,2,$000
 dn ___,0,$000
 dn ___,0,$000
 dn ___,0,$000
 dn G#4,5,$000
 dn ___,0,$000
 dn F_7,2,$000
 dn ___,0,$000
 dn ___,0,$000
 dn ___,0,$000
 dn G#4,5,$000
 dn ___,0,$000
 dn D#7,2,$000
 dn ___,0,$000
 dn G#4,5,$000
 dn ___,0,$000
 dn C#7,2,$000
 dn ___,0,$000
 dn ___,0,$000
 dn ___,0,$000
 dn C_7,2,$000
 dn ___,0,$000
 dn ___,0,$E00
 dn ___,0,$000
 dn A#6,2,$000
 dn ___,0,$000
 dn G#6,2,$000
 dn ___,0,$000
 dn ___,0,$E00
 dn ___,0,$000
 dn F_6,2,$000
 dn ___,0,$000
 dn ___,0,$000
 dn ___,0,$000
 dn ___,0,$000
 dn ___,0,$000
 dn ___,0,$220
 dn ___,0,$220
 dn ___,0,$220
 dn ___,0,$220
 dn A#6,1,$000
 dn ___,0,$000
 dn C_7,1,$000
 dn ___,0,$000
 dn C#7,1,$000
 dn ___,0,$000
 dn D#7,1,$000
 dn ___,0,$000

P67:
 dn A#7,1,$E01
 dn ___,0,$000
 dn A#7,1,$E02
 dn ___,0,$000
 dn A#7,1,$000
 dn ___,0,$000
 dn A#7,1,$E01
 dn ___,0,$000
 dn D#7,2,$000
 dn ___,0,$000
 dn ___,0,$000
 dn ___,0,$000
 dn A#7,1,$000
 dn ___,0,$000
 dn A#7,1,$E01
 dn ___,0,$000
 dn A#7,1,$E01
 dn ___,0,$000
 dn A#7,1,$E02
 dn ___,0,$000
 dn A#7,1,$000
 dn ___,0,$000
 dn A#7,1,$E01
 dn ___,0,$000
 dn D#7,2,$000
 dn ___,0,$000
 dn ___,0,$000
 dn ___,0,$000
 dn A#7,1,$000
 dn ___,0,$000
 dn A#7,1,$E01
 dn A#7,1,$E01
 dn D#6,3,$000
 dn ___,0,$000
 dn ___,0,$000
 dn ___,0,$000
 dn ___,0,$000
 dn ___,0,$000
 dn ___,0,$000
 dn ___,0,$000
 dn ___,0,$000
 dn ___,0,$000
 dn ___,0,$000
 dn ___,0,$000
 dn ___,0,$000
 dn ___,0,$000
 dn ___,0,$000
 dn ___,0,$000
 dn ___,0,$000
 dn ___,0,$000
 dn ___,0,$000
 dn ___,0,$000
 dn ___,0,$000
 dn ___,0,$000
 dn ___,0,$000
 dn ___,0,$000
 dn D#7,2,$000
 dn ___,0,$E00
 dn D#7,2,$000
 dn ___,0,$E00
 dn D#7,2,$000
 dn ___,0,$E00
 dn D#7,2,$000
 dn ___,0,$E00

P68:
 dn D#3,1,$000
 dn ___,0,$000
 dn ___,0,$000
 dn ___,0,$000
 dn D#4,1,$000
 dn ___,0,$000
 dn ___,0,$220
 dn ___,0,$220
 dn C_5,5,$000
 dn ___,0,$000
 dn D#4,1,$000
 dn ___,0,$000
 dn ___,0,$E00
 dn ___,0,$000
 dn D#3,1,$000
 dn ___,0,$000
 dn D#4,1,$000
 dn ___,0,$000
 dn ___,0,$220
 dn ___,0,$220
 dn D#3,1,$000
 dn ___,0,$000
 dn D#4,1,$000
 dn ___,0,$000
 dn C_5,5,$000
 dn ___,0,$000
 dn D#3,1,$000
 dn ___,0,$000
 dn D#4,1,$000
 dn ___,0,$000
 dn ___,0,$220
 dn ___,0,$220
 dn F_3,1,$000
 dn ___,0,$000
 dn ___,0,$000
 dn ___,0,$000
 dn F_4,1,$000
 dn ___,0,$000
 dn ___,0,$220
 dn ___,0,$220
 dn C_5,5,$000
 dn ___,0,$000
 dn F_4,1,$000
 dn ___,0,$000
 dn ___,0,$E00
 dn ___,0,$000
 dn A#3,1,$000
 dn ___,0,$000
 dn A#4,1,$000
 dn ___,0,$000
 dn ___,0,$220
 dn ___,0,$220
 dn A#3,1,$000
 dn ___,0,$000
 dn A#4,1,$000
 dn ___,0,$000
 dn C_5,5,$000
 dn ___,0,$000
 dn G#3,1,$000
 dn ___,0,$000
 dn G#4,1,$000
 dn ___,0,$000
 dn ___,0,$220
 dn ___,0,$220

P70:
 dn F_7,1,$000
 dn ___,0,$000
 dn C#7,1,$000
 dn ___,0,$000
 dn A#6,1,$000
 dn ___,0,$000
 dn D#7,1,$000
 dn ___,0,$000
 dn C_7,1,$000
 dn ___,0,$000
 dn G#6,1,$000
 dn ___,0,$000
 dn C#7,1,$000
 dn ___,0,$000
 dn A#6,1,$000
 dn ___,0,$000
 dn F_6,1,$000
 dn ___,0,$000
 dn C_7,1,$000
 dn ___,0,$000
 dn G#6,1,$000
 dn ___,0,$000
 dn D#6,1,$000
 dn ___,0,$000
 dn F_6,1,$000
 dn ___,0,$000
 dn G#6,1,$000
 dn ___,0,$000
 dn A#6,1,$000
 dn ___,0,$000
 dn C_7,1,$000
 dn ___,0,$000
 dn C#7,1,$000
 dn ___,0,$000
 dn A#6,1,$000
 dn ___,0,$000
 dn F_6,1,$000
 dn ___,0,$000
 dn C_7,1,$000
 dn ___,0,$000
 dn G#6,1,$000
 dn ___,0,$000
 dn D#6,1,$000
 dn ___,0,$000
 dn A#6,1,$000
 dn ___,0,$000
 dn F_6,1,$000
 dn ___,0,$000
 dn C#6,1,$000
 dn ___,0,$000
 dn G#6,1,$000
 dn ___,0,$000
 dn D#6,1,$000
 dn ___,0,$000
 dn G#6,1,$000
 dn ___,0,$000
 dn A#6,1,$000
 dn ___,0,$000
 dn C_7,1,$000
 dn ___,0,$000
 dn C#7,1,$000
 dn ___,0,$000
 dn D#7,1,$000
 dn ___,0,$000

P72:
 dn F#3,1,$000
 dn ___,0,$000
 dn ___,0,$000
 dn ___,0,$000
 dn F#4,1,$000
 dn ___,0,$000
 dn ___,0,$220
 dn ___,0,$220
 dn C_5,5,$000
 dn ___,0,$000
 dn F#4,1,$000
 dn ___,0,$000
 dn ___,0,$E00
 dn ___,0,$000
 dn F#3,1,$000
 dn ___,0,$000
 dn F#4,1,$000
 dn ___,0,$000
 dn ___,0,$220
 dn ___,0,$220
 dn F#3,1,$000
 dn ___,0,$000
 dn F#4,1,$000
 dn ___,0,$000
 dn C_5,5,$000
 dn ___,0,$000
 dn F#3,1,$000
 dn ___,0,$000
 dn F#4,1,$000
 dn ___,0,$000
 dn ___,0,$220
 dn ___,0,$220
 dn G#3,1,$000
 dn ___,0,$000
 dn ___,0,$000
 dn ___,0,$000
 dn G#4,1,$000
 dn ___,0,$000
 dn ___,0,$220
 dn ___,0,$220
 dn C_5,5,$000
 dn ___,0,$000
 dn G#4,1,$000
 dn ___,0,$000
 dn ___,0,$E00
 dn ___,0,$000
 dn C#4,1,$000
 dn ___,0,$000
 dn C#5,1,$000
 dn ___,0,$000
 dn ___,0,$220
 dn ___,0,$220
 dn C#4,1,$000
 dn ___,0,$000
 dn C#5,1,$000
 dn ___,0,$000
 dn C_5,5,$000
 dn ___,0,$000
 dn C_5,1,$000
 dn ___,0,$000
 dn A#4,1,$000
 dn ___,0,$000
 dn G#4,1,$000
 dn ___,0,$000

P73:
 dn C_5,2,$2F0
 dn ___,0,$2F0
 dn C#5,9,$000
 dn ___,0,$000
 dn F_5,9,$000
 dn ___,0,$000
 dn G#5,9,$000
 dn ___,0,$000
 dn C_5,2,$2F0
 dn ___,0,$2F0
 dn F_5,9,$000
 dn ___,0,$000
 dn G#5,9,$000
 dn ___,0,$000
 dn A#5,9,$000
 dn ___,0,$000
 dn C_5,2,$2F0
 dn ___,0,$2F0
 dn G#5,9,$000
 dn ___,0,$000
 dn A#5,9,$000
 dn ___,0,$000
 dn C#6,9,$000
 dn ___,0,$000
 dn C_5,2,$2F0
 dn ___,0,$2F0
 dn A#5,9,$000
 dn ___,0,$000
 dn C#6,9,$000
 dn ___,0,$000
 dn F_6,9,$000
 dn ___,0,$000
 dn C_5,2,$2F0
 dn ___,0,$2F0
 dn C#5,9,$000
 dn ___,0,$000
 dn F_5,9,$000
 dn ___,0,$000
 dn G#5,9,$000
 dn ___,0,$000
 dn C_5,2,$2F0
 dn ___,0,$2F0
 dn F_5,9,$000
 dn ___,0,$000
 dn G#5,9,$000
 dn ___,0,$000
 dn A#5,9,$000
 dn ___,0,$000
 dn C_5,2,$2F0
 dn ___,0,$2F0
 dn G#5,9,$000
 dn ___,0,$000
 dn A#5,9,$000
 dn ___,0,$000
 dn C#6,9,$000
 dn ___,0,$000
 dn C_5,2,$2F0
 dn ___,0,$2F0
 dn A#5,9,$000
 dn ___,0,$000
 dn C_5,5,$000
 dn ___,0,$000
 dn C_5,5,$000
 dn ___,0,$000

P74:
 dn D#3,1,$000
 dn ___,0,$000
 dn ___,0,$000
 dn ___,0,$000
 dn ___,0,$000
 dn ___,0,$000
 dn D#3,1,$000
 dn ___,0,$000
 dn ___,0,$000
 dn ___,0,$000
 dn ___,0,$000
 dn ___,0,$000
 dn C#4,6,$000
 dn ___,0,$000
 dn ___,0,$000
 dn ___,0,$000
 dn ___,0,$000
 dn ___,0,$000
 dn ___,0,$000
 dn ___,0,$000
 dn ___,0,$000
 dn ___,0,$000
 dn ___,0,$000
 dn ___,0,$000
 dn D#3,1,$000
 dn ___,0,$000
 dn ___,0,$000
 dn ___,0,$000
 dn ___,0,$000
 dn ___,0,$000
 dn ___,0,$000
 dn ___,0,$000
 dn F_3,1,$000
 dn ___,0,$000
 dn ___,0,$000
 dn ___,0,$000
 dn ___,0,$000
 dn ___,0,$000
 dn F_3,1,$000
 dn ___,0,$000
 dn ___,0,$000
 dn ___,0,$000
 dn ___,0,$000
 dn ___,0,$000
 dn G#3,6,$000
 dn ___,0,$000
 dn ___,0,$000
 dn ___,0,$000
 dn ___,0,$000
 dn ___,0,$000
 dn ___,0,$000
 dn ___,0,$000
 dn ___,0,$000
 dn ___,0,$000
 dn ___,0,$000
 dn ___,0,$000
 dn G#3,1,$000
 dn ___,0,$000
 dn ___,0,$000
 dn ___,0,$000
 dn A#3,1,$000
 dn ___,0,$000
 dn ___,0,$000
 dn ___,0,$000

P75:
 dn C_5,2,$2F0
 dn ___,0,$2F0
 dn ___,0,$000
 dn ___,0,$000
 dn ___,0,$000
 dn ___,0,$000
 dn ___,0,$000
 dn ___,0,$000
 dn ___,0,$000
 dn ___,0,$000
 dn ___,0,$000
 dn ___,0,$000
 dn ___,0,$000
 dn ___,0,$000
 dn ___,0,$000
 dn ___,0,$000
 dn ___,0,$000
 dn ___,0,$000
 dn ___,0,$000
 dn ___,0,$000
 dn ___,0,$000
 dn ___,0,$000
 dn ___,0,$000
 dn ___,0,$000
 dn ___,0,$000
 dn ___,0,$000
 dn ___,0,$000
 dn ___,0,$000
 dn ___,0,$000
 dn ___,0,$000
 dn ___,0,$000
 dn ___,0,$000
 dn ___,0,$000
 dn ___,0,$000
 dn ___,0,$000
 dn ___,0,$000
 dn ___,0,$000
 dn ___,0,$000
 dn ___,0,$000
 dn ___,0,$000
 dn ___,0,$000
 dn ___,0,$000
 dn ___,0,$000
 dn ___,0,$000
 dn ___,0,$000
 dn ___,0,$000
 dn ___,0,$000
 dn ___,0,$000
 dn ___,0,$000
 dn ___,0,$000
 dn ___,0,$000
 dn ___,0,$000
 dn ___,0,$000
 dn ___,0,$000
 dn ___,0,$000
 dn ___,0,$000
 dn ___,0,$000
 dn ___,0,$000
 dn ___,0,$000
 dn ___,0,$000
 dn ___,0,$000
 dn ___,0,$000
 dn ___,0,$000
 dn ___,0,$000

P76:
 dn F_7,2,$000
 dn F_7,1,$000
 dn C#7,2,$000
 dn C#7,1,$000
 dn A#6,2,$000
 dn A#6,1,$000
 dn D#7,2,$000
 dn D#7,1,$000
 dn C_7,2,$C08
 dn C_7,1,$C08
 dn G#6,2,$C08
 dn G#6,1,$C08
 dn C#7,2,$C08
 dn C#7,1,$C08
 dn A#6,2,$C08
 dn A#6,1,$C08
 dn F_6,2,$C04
 dn F_6,1,$C04
 dn C_7,2,$C04
 dn C_7,1,$C04
 dn G#6,2,$C04
 dn G#6,1,$C04
 dn D#6,2,$C04
 dn D#6,1,$C04
 dn F_6,2,$C04
 dn F_6,1,$C04
 dn G#6,2,$C04
 dn G#6,1,$C04
 dn A#6,2,$C04
 dn A#6,1,$C04
 dn C_7,2,$C04
 dn C_7,1,$C04
 dn C#7,2,$000
 dn C#7,1,$000
 dn A#6,2,$000
 dn A#6,1,$000
 dn F_6,2,$000
 dn F_6,1,$000
 dn C_7,2,$000
 dn C_7,1,$000
 dn G#6,2,$C08
 dn G#6,1,$C08
 dn D#6,2,$C08
 dn D#6,1,$C08
 dn A#6,2,$C08
 dn A#6,1,$C08
 dn F_6,2,$C08
 dn F_6,1,$C08
 dn C#6,2,$C04
 dn C#6,1,$C04
 dn G#6,2,$C04
 dn G#6,1,$C04
 dn D#6,2,$C04
 dn D#6,1,$C04
 dn G#6,2,$C04
 dn G#6,1,$C04
 dn A#6,2,$C04
 dn A#6,1,$C04
 dn C_7,2,$C04
 dn C_7,1,$C04
 dn C#7,2,$C04
 dn C#7,1,$C04
 dn D#7,2,$C04
 dn D#7,1,$C04

P77:
 dn F_6,3,$000
 dn ___,0,$000
 dn ___,0,$000
 dn ___,0,$000
 dn ___,0,$000
 dn ___,0,$000
 dn ___,0,$000
 dn ___,0,$000
 dn ___,0,$000
 dn ___,0,$000
 dn ___,0,$000
 dn ___,0,$000
 dn ___,0,$000
 dn ___,0,$000
 dn ___,0,$000
 dn ___,0,$000
 dn ___,0,$000
 dn ___,0,$000
 dn ___,0,$000
 dn ___,0,$000
 dn ___,0,$000
 dn ___,0,$000
 dn ___,0,$000
 dn ___,0,$000
 dn ___,0,$000
 dn ___,0,$000
 dn ___,0,$000
 dn ___,0,$000
 dn ___,0,$000
 dn ___,0,$000
 dn ___,0,$000
 dn ___,0,$000
 dn ___,0,$000
 dn ___,0,$000
 dn ___,0,$000
 dn ___,0,$000
 dn ___,0,$000
 dn ___,0,$000
 dn ___,0,$000
 dn ___,0,$000
 dn ___,0,$000
 dn ___,0,$000
 dn ___,0,$000
 dn ___,0,$000
 dn ___,0,$000
 dn ___,0,$000
 dn ___,0,$000
 dn ___,0,$000
 dn ___,0,$000
 dn ___,0,$000
 dn ___,0,$000
 dn ___,0,$000
 dn ___,0,$000
 dn ___,0,$000
 dn ___,0,$000
 dn ___,0,$000
 dn ___,0,$000
 dn ___,0,$000
 dn ___,0,$000
 dn ___,0,$000
 dn ___,0,$000
 dn ___,0,$000
 dn ___,0,$000
 dn ___,0,$000

P78:
 dn F#3,1,$000
 dn ___,0,$000
 dn ___,0,$000
 dn ___,0,$000
 dn ___,0,$000
 dn ___,0,$000
 dn F#3,1,$000
 dn ___,0,$000
 dn ___,0,$000
 dn ___,0,$000
 dn ___,0,$000
 dn ___,0,$000
 dn F#4,1,$000
 dn ___,0,$000
 dn ___,0,$000
 dn ___,0,$000
 dn ___,0,$000
 dn ___,0,$000
 dn F#3,1,$000
 dn ___,0,$000
 dn ___,0,$000
 dn ___,0,$000
 dn ___,0,$000
 dn ___,0,$000
 dn F#4,1,$000
 dn ___,0,$000
 dn ___,0,$000
 dn ___,0,$000
 dn F#3,1,$000
 dn ___,0,$000
 dn ___,0,$000
 dn ___,0,$000
 dn G#3,1,$000
 dn ___,0,$000
 dn ___,0,$000
 dn ___,0,$000
 dn ___,0,$000
 dn ___,0,$000
 dn G#3,1,$000
 dn ___,0,$000
 dn ___,0,$000
 dn ___,0,$000
 dn ___,0,$000
 dn ___,0,$000
 dn C#4,1,$000
 dn ___,0,$000
 dn ___,0,$000
 dn ___,0,$000
 dn ___,0,$000
 dn ___,0,$000
 dn C_4,1,$000
 dn ___,0,$000
 dn ___,0,$000
 dn ___,0,$000
 dn ___,0,$000
 dn ___,0,$000
 dn A#3,1,$000
 dn ___,0,$000
 dn ___,0,$000
 dn ___,0,$000
 dn G#3,1,$000
 dn ___,0,$000
 dn ___,0,$000
 dn ___,0,$000

P79:
 dn G#3,6,$000
 dn ___,0,$000
 dn ___,0,$000
 dn ___,0,$000
 dn ___,0,$000
 dn ___,0,$000
 dn ___,0,$000
 dn ___,0,$000
 dn ___,0,$000
 dn ___,0,$000
 dn ___,0,$000
 dn ___,0,$000
 dn ___,0,$000
 dn ___,0,$000
 dn ___,0,$000
 dn ___,0,$000
 dn ___,0,$000
 dn ___,0,$000
 dn ___,0,$000
 dn ___,0,$000
 dn ___,0,$000
 dn ___,0,$000
 dn ___,0,$000
 dn ___,0,$000
 dn ___,0,$000
 dn ___,0,$000
 dn ___,0,$000
 dn ___,0,$000
 dn ___,0,$000
 dn ___,0,$000
 dn ___,0,$000
 dn ___,0,$000
 dn ___,0,$000
 dn ___,0,$000
 dn ___,0,$000
 dn ___,0,$000
 dn ___,0,$000
 dn ___,0,$000
 dn ___,0,$000
 dn ___,0,$000
 dn ___,0,$000
 dn ___,0,$000
 dn ___,0,$000
 dn ___,0,$000
 dn ___,0,$000
 dn ___,0,$000
 dn ___,0,$000
 dn ___,0,$000
 dn ___,0,$000
 dn ___,0,$000
 dn ___,0,$000
 dn ___,0,$000
 dn ___,0,$000
 dn ___,0,$000
 dn ___,0,$000
 dn ___,0,$000
 dn ___,0,$000
 dn ___,0,$000
 dn ___,0,$000
 dn ___,0,$000
 dn ___,0,$000
 dn ___,0,$000
 dn ___,0,$000
 dn ___,0,$000

P81:
 dn F_7,2,$000
 dn F_7,1,$000
 dn C#7,2,$000
 dn C#7,1,$000
 dn A#6,2,$000
 dn A#6,1,$000
 dn D#7,2,$000
 dn D#7,1,$000
 dn C_7,2,$C08
 dn C_7,1,$C08
 dn G#6,2,$C08
 dn G#6,1,$C08
 dn C#7,2,$C08
 dn C#7,1,$C08
 dn A#6,2,$C08
 dn A#6,1,$C08
 dn F_6,2,$C04
 dn F_6,1,$C04
 dn C_7,2,$C04
 dn C_7,1,$C04
 dn G#6,2,$C04
 dn G#6,1,$C04
 dn D#6,2,$C04
 dn D#6,1,$C04
 dn F_6,2,$C04
 dn F_6,1,$C04
 dn G#6,2,$C04
 dn G#6,1,$C04
 dn A#6,2,$C04
 dn A#6,1,$C04
 dn C_7,2,$C04
 dn C_7,1,$C04
 dn ___,0,$E00
 dn ___,0,$000
 dn ___,0,$000
 dn ___,0,$000
 dn ___,0,$000
 dn ___,0,$000
 dn ___,0,$000
 dn ___,0,$000
 dn ___,0,$000
 dn ___,0,$000
 dn ___,0,$000
 dn ___,0,$000
 dn ___,0,$000
 dn ___,0,$000
 dn ___,0,$000
 dn ___,0,$000
 dn ___,0,$000
 dn ___,0,$000
 dn ___,0,$000
 dn ___,0,$000
 dn ___,0,$000
 dn ___,0,$000
 dn ___,0,$000
 dn ___,0,$000
 dn ___,0,$000
 dn ___,0,$000
 dn ___,0,$000
 dn ___,0,$000
 dn ___,0,$000
 dn ___,0,$000
 dn ___,0,$000
 dn ___,0,$000

itSquareSP1:
 dn 48,0,$000
 dn 36,0,$000
 dn ___,0,$000
 dn ___,0,$000
 dn ___,0,$000
 dn ___,0,$000
 dn ___,0,$000
 dn ___,0,$000
 dn ___,0,$000
 dn ___,0,$000
 dn ___,0,$000
 dn ___,0,$000
 dn ___,0,$000
 dn ___,0,$000
 dn ___,0,$000
 dn ___,0,$000
 dn ___,0,$000
 dn ___,0,$000
 dn ___,0,$000
 dn ___,0,$000
 dn ___,0,$000
 dn ___,0,$000
 dn ___,0,$000
 dn ___,0,$000
 dn ___,0,$000
 dn ___,0,$000
 dn ___,0,$000
 dn ___,0,$000
 dn ___,0,$000
 dn ___,0,$000
 dn ___,0,$000
 dn ___,1,$000

itSquareSP3:
 dn 44,0,$000
 dn 53,0,$000
 dn 36,0,$000
 dn 56,0,$000
 dn 41,0,$000
 dn 48,1,$000
 dn ___,0,$000
 dn ___,0,$000
 dn ___,0,$000
 dn ___,0,$000
 dn ___,0,$000
 dn ___,0,$000
 dn ___,0,$000
 dn ___,0,$000
 dn ___,0,$000
 dn ___,0,$000
 dn ___,0,$000
 dn ___,0,$000
 dn ___,0,$000
 dn ___,0,$000
 dn ___,0,$000
 dn ___,0,$000
 dn ___,0,$000
 dn ___,0,$000
 dn ___,0,$000
 dn ___,0,$000
 dn ___,0,$000
 dn ___,0,$000
 dn ___,0,$000
 dn ___,0,$000
 dn ___,0,$000
 dn ___,1,$000

itSquareSP4:
 dn 45,0,$000
 dn 53,0,$000
 dn 36,0,$000
 dn 57,0,$000
 dn 41,0,$000
 dn 48,1,$000
 dn ___,0,$000
 dn ___,0,$000
 dn ___,0,$000
 dn ___,0,$000
 dn ___,0,$000
 dn ___,0,$000
 dn ___,0,$000
 dn ___,0,$000
 dn ___,0,$000
 dn ___,0,$000
 dn ___,0,$000
 dn ___,0,$000
 dn ___,0,$000
 dn ___,0,$000
 dn ___,0,$000
 dn ___,0,$000
 dn ___,0,$000
 dn ___,0,$000
 dn ___,0,$000
 dn ___,0,$000
 dn ___,0,$000
 dn ___,0,$000
 dn ___,0,$000
 dn ___,0,$000
 dn ___,0,$000
 dn ___,1,$000

itSquareSP5:
 dn ___,0,$C00
 dn 36,0,$C0F
 dn 30,0,$C0F
 dn ___,0,$C00
 dn ___,0,$000
 dn ___,0,$000
 dn ___,0,$000
 dn ___,0,$000
 dn ___,0,$000
 dn ___,0,$000
 dn ___,0,$000
 dn ___,0,$000
 dn ___,0,$000
 dn ___,0,$000
 dn ___,0,$000
 dn ___,0,$000
 dn ___,0,$000
 dn ___,0,$000
 dn ___,0,$000
 dn ___,0,$000
 dn ___,0,$000
 dn ___,0,$000
 dn ___,0,$000
 dn ___,0,$000
 dn ___,0,$000
 dn ___,0,$000
 dn ___,0,$000
 dn ___,0,$000
 dn ___,0,$000
 dn ___,0,$000
 dn ___,0,$000
 dn ___,1,$000

itSquareSP6:
 dn 48,0,$000
 dn 36,0,$000
 dn ___,0,$000
 dn ___,0,$000
 dn 38,0,$000
 dn ___,0,$000
 dn ___,0,$000
 dn ___,0,$000
 dn ___,0,$000
 dn ___,0,$000
 dn ___,0,$000
 dn ___,0,$000
 dn ___,0,$000
 dn ___,0,$000
 dn ___,0,$000
 dn ___,0,$000
 dn ___,0,$000
 dn ___,0,$000
 dn ___,0,$000
 dn ___,0,$000
 dn ___,0,$000
 dn ___,0,$000
 dn ___,0,$000
 dn ___,0,$000
 dn ___,0,$000
 dn ___,0,$000
 dn ___,0,$000
 dn ___,0,$000
 dn ___,0,$000
 dn ___,0,$000
 dn ___,0,$000
 dn ___,1,$000

itSquareSP7:
 dn 40,0,$000
 dn 55,0,$000
 dn 36,0,$000
 dn 52,0,$000
 dn 43,0,$000
 dn 48,1,$000
 dn ___,0,$000
 dn ___,0,$000
 dn ___,0,$000
 dn ___,0,$000
 dn ___,0,$000
 dn ___,0,$000
 dn ___,0,$000
 dn ___,0,$000
 dn ___,0,$000
 dn ___,0,$000
 dn ___,0,$000
 dn ___,0,$000
 dn ___,0,$000
 dn ___,0,$000
 dn ___,0,$000
 dn ___,0,$000
 dn ___,0,$000
 dn ___,0,$000
 dn ___,0,$000
 dn ___,0,$000
 dn ___,0,$000
 dn ___,0,$000
 dn ___,0,$000
 dn ___,0,$000
 dn ___,0,$000
 dn ___,1,$000

itSquareSP8:
 dn 39,0,$000
 dn 56,0,$000
 dn 36,0,$000
 dn 51,0,$000
 dn 44,0,$000
 dn 48,1,$000
 dn ___,0,$000
 dn ___,0,$000
 dn ___,0,$000
 dn ___,0,$000
 dn ___,0,$000
 dn ___,0,$000
 dn ___,0,$000
 dn ___,0,$000
 dn ___,0,$000
 dn ___,0,$000
 dn ___,0,$000
 dn ___,0,$000
 dn ___,0,$000
 dn ___,0,$000
 dn ___,0,$000
 dn ___,0,$000
 dn ___,0,$000
 dn ___,0,$000
 dn ___,0,$000
 dn ___,0,$000
 dn ___,0,$000
 dn ___,0,$000
 dn ___,0,$000
 dn ___,0,$000
 dn ___,0,$000
 dn ___,1,$000

itSquareSP9:
 dn 36,0,$000
 dn 48,1,$000
 dn ___,0,$000
 dn ___,0,$000
 dn ___,0,$000
 dn ___,0,$000
 dn ___,0,$000
 dn ___,0,$000
 dn ___,0,$000
 dn ___,0,$000
 dn ___,0,$000
 dn ___,0,$000
 dn ___,0,$000
 dn ___,0,$000
 dn ___,0,$000
 dn ___,0,$000
 dn ___,0,$000
 dn ___,0,$000
 dn ___,0,$000
 dn ___,0,$000
 dn ___,0,$000
 dn ___,0,$000
 dn ___,0,$000
 dn ___,0,$000
 dn ___,0,$000
 dn ___,0,$000
 dn ___,0,$000
 dn ___,0,$000
 dn ___,0,$000
 dn ___,0,$000
 dn ___,0,$000
 dn ___,1,$000

itWaveSP6:
 dn ___,0,$C00
 dn 36,0,$C0F
 dn 30,0,$C0F
 dn ___,0,$C00
 dn ___,0,$000
 dn ___,0,$000
 dn ___,0,$000
 dn ___,0,$000
 dn ___,0,$000
 dn ___,0,$000
 dn ___,0,$000
 dn ___,0,$000
 dn ___,0,$000
 dn ___,0,$000
 dn ___,0,$000
 dn ___,0,$000
 dn ___,0,$000
 dn ___,0,$000
 dn ___,0,$000
 dn ___,0,$000
 dn ___,0,$000
 dn ___,0,$000
 dn ___,0,$000
 dn ___,0,$000
 dn ___,0,$000
 dn ___,0,$000
 dn ___,0,$000
 dn ___,0,$000
 dn ___,0,$000
 dn ___,0,$000
 dn ___,0,$000
 dn ___,1,$000

itNoiseSP2:
 dn 36,0,$000
 dn 0,0,$000
 dn 0,0,$000
 dn 36,0,$000
 dn ___,0,$000
 dn ___,0,$000
 dn ___,0,$000
 dn ___,0,$000
 dn ___,0,$000
 dn ___,0,$000
 dn ___,0,$000
 dn ___,0,$000
 dn ___,0,$000
 dn ___,0,$000
 dn ___,0,$000
 dn ___,0,$000
 dn ___,0,$000
 dn ___,0,$000
 dn ___,0,$000
 dn ___,0,$000
 dn ___,0,$000
 dn ___,0,$000
 dn ___,0,$000
 dn ___,0,$000
 dn ___,0,$000
 dn ___,0,$000
 dn ___,0,$000
 dn ___,0,$000
 dn ___,0,$000
 dn ___,0,$000
 dn ___,0,$000
 dn ___,1,$000

duty_instruments:
itSquareinst1:
db 8
db 64
db 211
dw itSquareSP1
db 128

itSquareinst2:
db 8
db 185
db 180
dw 0
db 192

itSquareinst3:
db 8
db 128
db 178
dw itSquareSP3
db 128

itSquareinst4:
db 8
db 128
db 178
dw itSquareSP4
db 128

itSquareinst5:
db 8
db 128
db 193
dw itSquareSP5
db 128

itSquareinst6:
db 8
db 64
db 211
dw itSquareSP6
db 128

itSquareinst7:
db 8
db 128
db 178
dw itSquareSP7
db 128

itSquareinst8:
db 8
db 128
db 178
dw itSquareSP8
db 128

itSquareinst9:
db 8
db 0
db 161
dw itSquareSP9
db 128



wave_instruments:
itWaveinst1:
db 0
db 32
db 0
dw 0
db 128

itWaveinst2:
db 0
db 32
db 1
dw 0
db 128

itWaveinst3:
db 0
db 32
db 2
dw 0
db 128

itWaveinst4:
db 0
db 32
db 3
dw 0
db 128

itWaveinst5:
db 0
db 32
db 4
dw 0
db 128

itWaveinst6:
db 0
db 32
db 5
dw itWaveSP6
db 128



noise_instruments:
itNoiseinst1:
db 114
dw 0
db 0
ds 2

itNoiseinst2:
db 178
dw itNoiseSP2
db 0
ds 2

itNoiseinst3:
db 197
dw 0
db 0
ds 2



routines:
__hUGE_Routine_0:

__end_hUGE_Routine_0:
ret

__hUGE_Routine_1:

__end_hUGE_Routine_1:
ret

__hUGE_Routine_2:

__end_hUGE_Routine_2:
ret

__hUGE_Routine_3:

__end_hUGE_Routine_3:
ret

__hUGE_Routine_4:

__end_hUGE_Routine_4:
ret

__hUGE_Routine_5:

__end_hUGE_Routine_5:
ret

__hUGE_Routine_6:

__end_hUGE_Routine_6:
ret

__hUGE_Routine_7:

__end_hUGE_Routine_7:
ret

__hUGE_Routine_8:

__end_hUGE_Routine_8:
ret

__hUGE_Routine_9:

__end_hUGE_Routine_9:
ret

__hUGE_Routine_10:

__end_hUGE_Routine_10:
ret

__hUGE_Routine_11:

__end_hUGE_Routine_11:
ret

__hUGE_Routine_12:

__end_hUGE_Routine_12:
ret

__hUGE_Routine_13:

__end_hUGE_Routine_13:
ret

__hUGE_Routine_14:

__end_hUGE_Routine_14:
ret

__hUGE_Routine_15:

__end_hUGE_Routine_15:
ret

waves:
wave0: db 190,217,103,118,33,55,134,67,87,100,71,171,116,87,135,103
wave1: db 139,203,205,220,132,50,16,1,107,204,221,218,98,34,34,37
wave2: db 220,32,75,233,50,122,152,101,134,72,170,114,40,236,64,42
wave3: db 204,65,38,171,167,68,120,102,153,153,82,55,207,147,18,108
wave4: db 223,114,17,56,202,153,134,87,150,51,89,222,199,32,3,125
wave5: db 255,255,255,255,255,255,255,255,0,0,0,0,0,0,0,0

